<svg xmlns:xlink="http://www.w3.org/1999/xlink" xmlns="http://www.w3.org/2000/svg" viewBox="0 0 129.44 65.7" width="129.44"  height="65.7" >
  <defs>
    <style>.cls-1{fill:#fff;}</style>
  </defs>
  <g id="Roundel">
    <path class="cls-1" d="M68.5,54a4,4,0,0,1-1.55.32,1.94,1.94,0,0,1-1.63-.69,3,3,0,0,1-.46-1.83,2.76,2.76,0,0,1,.62-2,2.12,2.12,0,0,1,1.58-.51,7.09,7.09,0,0,1,1.26.12l-.07.8a8.69,8.69,0,0,0-1.09-.08,1.28,1.28,0,0,0-1,.32,2.05,2.05,0,0,0-.33,1.35A2.5,2.5,0,0,0,66.06,53a1.07,1.07,0,0,0,1,.46,4.46,4.46,0,0,0,1.21-.22Z"/>
    <path class="cls-1" d="M69,54.22V49.33h3v.84H69.91V51.3h1.72v.82H69.91v1.26H72v.84Z"/>
    <path class="cls-1" d="M75.09,54.22c-.35-.65-.65-1.25-.94-1.89l-.68,0v1.91h-1V49.36c.46,0,1.07-.1,1.54-.1,1,0,1.93.25,1.93,1.51a1.38,1.38,0,0,1-.93,1.43c.28.58.71,1.32,1.14,2Zm-1.62-2.61a4.28,4.28,0,0,0,1-.07.66.66,0,0,0,.51-.75c0-.59-.41-.69-.88-.69-.22,0-.46,0-.66,0Z"/>
    <path class="cls-1" d="M77.46,54.22v-4H76.14v-.84h3.59v.84H78.41v4Z"/>
    <path class="cls-1" d="M80.09,54.22V49.33h1v4.89Z"/>
    <path class="cls-1" d="M81.83,54.22V49.33h3.11v.84H82.79v1.22h1.77v.82H82.79v2Z"/>
    <path class="cls-1" d="M85.39,54.22V49.33h1v4.89Z"/>
    <path class="cls-1" d="M87.13,54.22V49.33h3v.84H88.09V51.3h1.72v.82H88.09v1.26h2.08v.84Z"/>
    <path class="cls-1" d="M90.69,49.39a11.85,11.85,0,0,1,1.53-.13c1.65,0,2.23.87,2.23,2.51s-.58,2.51-2.23,2.51a13.53,13.53,0,0,1-1.53-.08Zm1,4h.48c1.08,0,1.35-.46,1.35-1.67s-.27-1.67-1.35-1.67a3.77,3.77,0,0,0-.48,0Z"/>
    <path class="cls-1" d="M65.31,18.49V12.25h.93v6.24Z"/>
    <path class="cls-1" d="M67.23,17.61a9.41,9.41,0,0,0,1.47.14A2,2,0,0,0,70,17.4a.82.82,0,0,0,.26-.64c0-.61-.38-.81-1.45-1.13s-1.76-.76-1.76-1.82a1.53,1.53,0,0,1,.6-1.24,2.5,2.5,0,0,1,1.54-.42,9.74,9.74,0,0,1,1.72.19l-.11.78A8.38,8.38,0,0,0,69.38,13a2,2,0,0,0-1.07.22.67.67,0,0,0-.29.59c0,.64.49.82,1.52,1.13s1.69.74,1.69,1.83a1.68,1.68,0,0,1-.63,1.38,2.69,2.69,0,0,1-1.71.45,10,10,0,0,1-1.78-.18Z"/>
    <path class="cls-1" d="M71.67,15.37c0-2.12.8-3.22,2.69-3.22s2.7,1.1,2.7,3.22-.81,3.21-2.7,3.21S71.67,17.48,71.67,15.37Zm4.44,0c0-1.65-.5-2.39-1.75-2.39s-1.74.74-1.74,2.39.49,2.38,1.74,2.38S76.11,17,76.11,15.37Z"/>
    <path class="cls-1" d="M82.74,15.94a2.67,2.67,0,0,1-1.41.38,2,2,0,0,1-1.52-.54,2.12,2.12,0,0,1-.48-1.54,2.08,2.08,0,0,1,.49-1.51,2.31,2.31,0,0,1,1.71-.58,2.42,2.42,0,0,1,1.55.45,2,2,0,0,1,.59,1.58V16.5a2,2,0,0,1-.6,1.59,2.53,2.53,0,0,1-1.7.49,8.63,8.63,0,0,1-1.72-.19l.11-.78a7.52,7.52,0,0,0,1.46.16,1.74,1.74,0,0,0,1.22-.33,1.39,1.39,0,0,0,.3-1Zm0-1.71c0-.85-.32-1.27-1.23-1.27s-1.23.42-1.23,1.27a1.34,1.34,0,0,0,.28,1,1.24,1.24,0,0,0,1,.3,3.92,3.92,0,0,0,1.23-.22Z"/>
    <path class="cls-1" d="M84.35,15.37c0-2.1.43-3.22,2.25-3.22s2.25,1.12,2.25,3.22-.43,3.21-2.25,3.21S84.35,17.45,84.35,15.37Zm3.57,0c0-1.49-.08-2.41-1.32-2.41s-1.32.92-1.32,2.41.07,2.41,1.32,2.41S87.92,16.84,87.92,15.37Z"/>
    <path class="cls-1" d="M89.52,15.37c0-2.1.44-3.22,2.26-3.22S94,13.27,94,15.37s-.44,3.21-2.25,3.21S89.52,17.45,89.52,15.37Zm3.58,0C93.1,13.88,93,13,91.78,13s-1.33.92-1.33,2.41.08,2.41,1.33,2.41S93.1,16.84,93.1,15.37Z"/>
    <path class="cls-1" d="M95.66,18.49V13.18l-1.3.5-.28-.63,1.66-.8h.85v6.24Z"/>
    <path class="cls-1" d="M68.27,27.56c-1-.6-1.85-.82-2.49-1.27s-.9-.91-.9-2.24c0-1.66.63-2.52,2.12-2.52s2.11.86,2.11,2.52a2.77,2.77,0,0,1-.53,1.83,2,2,0,0,1-1.42.57h0a5.9,5.9,0,0,1,1.42.46Zm.09-3.51c0-1.29-.38-1.87-1.36-1.87s-1.38.58-1.38,1.87S66,25.92,67,25.92,68.36,25.34,68.36,24.05Z"/>
    <path class="cls-1" d="M71.84,26.49l0-.29a1.81,1.81,0,0,1-1.06.38,1.1,1.1,0,0,1-1.19-1.23V23h.69v2.3c0,.47.21.66.62.66a1.94,1.94,0,0,0,.81-.2V23h.69v3.5Z"/>
    <path class="cls-1" d="M75.1,26.49,75,26.2a1.55,1.55,0,0,1-1,.37,1.08,1.08,0,0,1-1.16-1.1,1,1,0,0,1,.37-.82,1.48,1.48,0,0,1,.94-.27l.77,0v-.29a.58.58,0,0,0-.15-.44.91.91,0,0,0-.62-.15,5.33,5.33,0,0,0-1,.11l-.1-.58a4.39,4.39,0,0,1,1.15-.15,1.6,1.6,0,0,1,1.05.27,1.11,1.11,0,0,1,.35.9v2.41Zm-.18-1.57-.63,0c-.51,0-.75.18-.75.57a.53.53,0,0,0,.6.55,1.33,1.33,0,0,0,.78-.26Z"/>
    <path class="cls-1" d="M76.26,26.49V21.61H77v4.88Z"/>
    <path class="cls-1" d="M78,21.58a.39.39,0,0,1,.38.39.38.38,0,0,1-.38.38.37.37,0,0,1-.38-.38A.38.38,0,0,1,78,21.58Zm-.34,4.91V23h.69v3.5Z"/>
    <path class="cls-1" d="M80.88,26.34a1.94,1.94,0,0,1-.85.21.83.83,0,0,1-.89-.95v-2h-.52v-.51l.54,0,.06-1h.61v1h1v.57h-1v1.93c0,.26,0,.44.31.44a1.1,1.1,0,0,0,.51-.13Z"/>
    <path class="cls-1" d="M81.83,27.87c.21-.54.37-1,.49-1.38H82c-.35-1-.72-2.24-1-3.5h.72c.24,1,.5,2,.8,3h0c.29-.85.58-1.95.81-3H84a41.07,41.07,0,0,1-1.48,4.88Z"/>
    <path class="cls-1" d="M69.17,34.5c0-1.31-.1-2.65-.16-3.94h0l-1.11,3.11h-.78L66,30.56h0c-.06,1.29-.12,2.63-.16,3.94H65c0-1.63.14-3.26.23-4.89h1.06l1.12,3.24h0l1.12-3.24h1.06c.1,1.63.18,3.26.23,4.89Z"/>
    <path class="cls-1" d="M72.62,34.5l-.08-.3a1.5,1.5,0,0,1-1,.37,1.07,1.07,0,0,1-1.16-1.1,1,1,0,0,1,.37-.82,1.54,1.54,0,0,1,.94-.26c.24,0,.52,0,.76,0v-.3a.59.59,0,0,0-.14-.44.91.91,0,0,0-.62-.15,4.54,4.54,0,0,0-1,.12l-.1-.58a4.39,4.39,0,0,1,1.15-.15,1.6,1.6,0,0,1,1,.27,1.09,1.09,0,0,1,.34.9V34.5Zm-.19-1.57a6,6,0,0,0-.62,0c-.51,0-.75.18-.75.56a.54.54,0,0,0,.6.56,1.28,1.28,0,0,0,.77-.26Z"/>
    <path class="cls-1" d="M75.92,34.5V32.2c0-.45-.21-.66-.6-.66a2.05,2.05,0,0,0-.85.22V34.5h-.69V31h.51l.06.32a1.83,1.83,0,0,1,1.07-.39,1.1,1.1,0,0,1,1.19,1.22V34.5Z"/>
    <path class="cls-1" d="M79.29,34.5l-.07-.3a1.53,1.53,0,0,1-1,.37A1.07,1.07,0,0,1,77,33.47a1,1,0,0,1,.37-.82,1.56,1.56,0,0,1,.94-.26c.25,0,.53,0,.77,0v-.3a.59.59,0,0,0-.14-.44.94.94,0,0,0-.63-.15,4.37,4.37,0,0,0-1,.12l-.11-.58a4.39,4.39,0,0,1,1.15-.15,1.63,1.63,0,0,1,1.06.27,1.09,1.09,0,0,1,.34.9V34.5Zm-.18-1.57a6.12,6.12,0,0,0-.62,0c-.51,0-.75.18-.75.56a.54.54,0,0,0,.6.56,1.3,1.3,0,0,0,.77-.26Z"/>
    <path class="cls-1" d="M82.48,34.3a1.44,1.44,0,0,1-.83.27c-1,0-1.36-.64-1.36-1.79,0-1.32.41-1.86,1.38-1.86a5.14,5.14,0,0,1,1.51.24v3.66a1.11,1.11,0,0,1-.32.83,1.58,1.58,0,0,1-1.08.31,6.38,6.38,0,0,1-1.13-.13l.09-.59a6.25,6.25,0,0,0,.94.09,1,1,0,0,0,.67-.16.6.6,0,0,0,.13-.43Zm0-2.7a4.14,4.14,0,0,0-.74-.07c-.6,0-.75.41-.75,1.25s.16,1.23.74,1.23a1.72,1.72,0,0,0,.75-.17Z"/>
    <path class="cls-1" d="M86.37,34.29a2.93,2.93,0,0,1-1.22.28c-1,0-1.58-.64-1.58-1.8,0-1,.44-1.85,1.51-1.85.85,0,1.34.6,1.34,1.55a3,3,0,0,1,0,.53h-2.1a1.14,1.14,0,0,0,.23.72.93.93,0,0,0,.7.24,2.72,2.72,0,0,0,1-.22Zm-.6-1.84c0-.52-.15-.94-.71-.94s-.76.45-.79.94Z"/>
    <path class="cls-1" d="M91,34.5V32.18c0-.44-.21-.64-.6-.64a1.71,1.71,0,0,0-.81.24,3.28,3.28,0,0,1,0,.43V34.5h-.69V32.18c0-.44-.21-.64-.59-.64a1.66,1.66,0,0,0-.78.21V34.5h-.69V31h.5l.06.32a1.78,1.78,0,0,1,1.06-.39,1,1,0,0,1,.91.45,1.69,1.69,0,0,1,1.09-.45c.78,0,1.19.43,1.19,1.29V34.5Z"/>
    <path class="cls-1" d="M94.86,34.29a2.88,2.88,0,0,1-1.21.28c-1,0-1.59-.64-1.59-1.8,0-1,.44-1.85,1.51-1.85.85,0,1.35.6,1.35,1.55a3,3,0,0,1-.06.53h-2.1a1.15,1.15,0,0,0,.24.72.93.93,0,0,0,.7.24,2.62,2.62,0,0,0,1-.22Zm-.6-1.84c0-.52-.15-.94-.71-.94s-.75.45-.78.94Z"/>
    <path class="cls-1" d="M97.5,34.5V32.2c0-.45-.2-.66-.59-.66a2.05,2.05,0,0,0-.85.22V34.5h-.69V31h.51l.06.32A1.78,1.78,0,0,1,97,30.92a1.09,1.09,0,0,1,1.19,1.22V34.5Z"/>
    <path class="cls-1" d="M100.67,34.35a1.9,1.9,0,0,1-.84.21c-.57,0-.89-.32-.89-1v-2h-.53v-.51L99,31,99,30h.62v1h1v.57h-1V33.5c0,.25,0,.44.31.44a1.32,1.32,0,0,0,.51-.13Z"/>
    <path class="cls-1" d="M65.08,41.82a7,7,0,0,0,1.16.11,1.57,1.57,0,0,0,1-.27.68.68,0,0,0,.2-.51c0-.47-.29-.63-1.14-.88S65,39.68,65,38.85a1.19,1.19,0,0,1,.47-1,1.93,1.93,0,0,1,1.21-.34,7.44,7.44,0,0,1,1.35.15l-.09.61a7.19,7.19,0,0,0-1.13-.1,1.48,1.48,0,0,0-.84.17.52.52,0,0,0-.23.46c0,.5.39.64,1.19.88s1.33.58,1.33,1.44a1.31,1.31,0,0,1-.5,1.07,2.08,2.08,0,0,1-1.34.36A8.61,8.61,0,0,1,65,42.44Z"/>
    <path class="cls-1" d="M69.35,43.89c.2-.54.37-1,.49-1.38h-.37c-.36-1-.72-2.25-1-3.51h.72c.23,1,.49,2,.8,3h0c.28-.85.58-2,.8-3h.71A41.24,41.24,0,0,1,70,43.89Z"/>
    <path class="cls-1" d="M71.75,41.86a6.91,6.91,0,0,0,1,.11,1.3,1.3,0,0,0,.66-.13.36.36,0,0,0,.16-.31c0-.28-.21-.38-.85-.54s-1.07-.37-1.07-1a.91.91,0,0,1,.45-.82,1.8,1.8,0,0,1,1-.21,5.19,5.19,0,0,1,1,.11l-.06.58a5.9,5.9,0,0,0-.87-.07,1.13,1.13,0,0,0-.63.12.32.32,0,0,0-.15.27c0,.28.28.34,1,.54s1,.46,1,1a1,1,0,0,1-.39.83,1.85,1.85,0,0,1-1.07.26,4.75,4.75,0,0,1-1.17-.14Z"/>
    <path class="cls-1" d="M76.53,42.35a1.9,1.9,0,0,1-.84.22.84.84,0,0,1-.9-1v-2h-.52v-.51l.55,0,.05-1h.61v1h1v.57h-1V41.5c0,.26,0,.44.31.44a1.1,1.1,0,0,0,.51-.13Z"/>
    <path class="cls-1" d="M79.43,42.3a3.09,3.09,0,0,1-1.22.28c-1,0-1.58-.64-1.58-1.8,0-1,.44-1.86,1.51-1.86.85,0,1.34.61,1.34,1.55a2.81,2.81,0,0,1,0,.53h-2.1a1.14,1.14,0,0,0,.23.72.9.9,0,0,0,.7.25,2.72,2.72,0,0,0,1-.22Zm-.6-1.84c0-.53-.15-.94-.71-.94s-.76.45-.79.94Z"/>
    <path class="cls-1" d="M84.06,42.51V40.18c0-.44-.21-.63-.6-.63a1.71,1.71,0,0,0-.81.24,3.13,3.13,0,0,1,0,.43v2.29H82V40.18c0-.44-.21-.63-.59-.63a1.55,1.55,0,0,0-.78.21v2.75h-.69V39h.5l.06.32a1.76,1.76,0,0,1,1.06-.4,1,1,0,0,1,.91.45,1.73,1.73,0,0,1,1.09-.45c.78,0,1.19.44,1.19,1.29v2.3Z"/>
    <path class="cls-1" d="M85.26,41.86a6.91,6.91,0,0,0,1,.11,1.23,1.23,0,0,0,.65-.13.34.34,0,0,0,.17-.31c0-.28-.21-.38-.85-.54s-1.08-.37-1.08-1a.91.91,0,0,1,.46-.82,1.8,1.8,0,0,1,1-.21,5.19,5.19,0,0,1,1,.11l-.06.58a5.9,5.9,0,0,0-.87-.07,1.13,1.13,0,0,0-.63.12.32.32,0,0,0-.15.27c0,.28.28.34,1,.54s1,.46,1,1a1,1,0,0,1-.39.83,1.85,1.85,0,0,1-1.07.26,4.75,4.75,0,0,1-1.17-.14Z"/>
    <path class="cls-1" d="M99.58,65.7H29.86a.75.75,0,0,1-.74-.75.74.74,0,0,1,.74-.74H99.58a28.37,28.37,0,1,0,0-56.74H44.79a.75.75,0,0,1,0-1.5H99.58a29.87,29.87,0,0,1,0,59.73Z"/>
    <path class="cls-1" d="M31.6,28.74a6.35,6.35,0,0,1,12.68,0ZM37,43.79c-.9-2.64-3-4-4.83-5.2-2-1.3-2.83-2-2.86-3.22a3.08,3.08,0,0,1,3-3.11H43.36Zm-8.57,10a10.06,10.06,0,0,0,1.49.13,7.79,7.79,0,0,0,1.49-.13L29.87,56.5ZM26.57,32.26a6.78,6.78,0,0,0-.76,3h0a.41.41,0,0,0,0,.11h0c.05,3.31,2.49,4.9,4.46,6.19,2.34,1.52,3.66,2.5,3.66,5s-1.95,3.9-4.36,3.9a5.2,5.2,0,0,1-4.27-2.2l-.69-1.2L16.3,32.26ZM22,22.7a6.4,6.4,0,0,1,6.33,6H15.61a6.42,6.42,0,0,1,6.34-6m16-3.36a9.47,9.47,0,0,0-8,4.37,9.45,9.45,0,0,0-8-4.37,9.82,9.82,0,0,0-9.8,9.83v1A5.51,5.51,0,0,0,13,33.26L29.87,62.34s16-27.62,16.79-29.08a5.57,5.57,0,0,0,.92-3.09v-1a9.75,9.75,0,0,0-9.64-9.83"/>
    <path class="cls-1" d="M23.8,5.22a5.31,5.31,0,0,0-2.87.86V0H18.54V16.46h1.4l.39-.88a5.56,5.56,0,0,0,3.47,1.14c3.12,0,4.27-2.15,4.27-5.75S26.92,5.22,23.8,5.22m-.56,2.09c2.1,0,2.42,1.64,2.42,3.66s-.32,3.67-2.42,3.67A4.5,4.5,0,0,1,20.93,14V7.94a4.51,4.51,0,0,1,2.31-.63M31.1,8.65c0-1,.79-1.36,2.06-1.36a8.78,8.78,0,0,1,3.27.61V5.77a8.06,8.06,0,0,0-3.32-.55c-3.14,0-4.34,1.6-4.34,3.49s.79,2.92,4,3.21c1.43.13,1.78.54,1.78,1.36s-.84,1.36-2.55,1.36A9.15,9.15,0,0,1,28.84,14v2.1a9.78,9.78,0,0,0,3.53.59c3.42,0,4.55-1.64,4.55-3.53s-.83-3-4-3.31c-1.39-.14-1.78-.47-1.78-1.23m9.62,8a2.26,2.26,0,0,0,.47-.05v-2c-.69,0-.9-.22-.9-.83V5.49H37.9v8.27c0,1.89.88,2.86,2.82,2.86M37.53,2.24a1.57,1.57,0,1,0,3.13,0,1.57,1.57,0,1,0-3.13,0"/>
    <path class="cls-1" d="M29.86,65.7A29.87,29.87,0,0,1,14.55,10.19a.74.74,0,1,1,.76,1.28A28.38,28.38,0,1,0,58.23,35.84,28.16,28.16,0,0,0,44.41,11.47a.75.75,0,0,1-.26-1,.76.76,0,0,1,1-.26A29.87,29.87,0,0,1,29.86,65.7Z"/>
  </g>
</svg>