<svg xmlns:xlink="http://www.w3.org/1999/xlink" xmlns="http://www.w3.org/2000/svg" viewBox="0 0 129.44 65.7" width="129.44"  height="65.7" >
  <defs>
    <style>.cls-1{fill:#fff;}</style>
  </defs>
  <g id="Roundel">
    <path class="cls-1" d="M68.5,54a4,4,0,0,1-1.55.32,1.94,1.94,0,0,1-1.63-.69,3,3,0,0,1-.46-1.83,2.76,2.76,0,0,1,.62-2,2.12,2.12,0,0,1,1.58-.51,7.09,7.09,0,0,1,1.26.12l-.07.8a8.69,8.69,0,0,0-1.09-.08,1.28,1.28,0,0,0-1,.32,2.05,2.05,0,0,0-.33,1.35A2.5,2.5,0,0,0,66.06,53a1.07,1.07,0,0,0,1,.46,4.46,4.46,0,0,0,1.21-.22Z"/>
    <path class="cls-1" d="M69,54.22V49.33h3v.84H69.91V51.3h1.72v.82H69.91v1.26H72v.84Z"/>
    <path class="cls-1" d="M75.09,54.22c-.35-.65-.65-1.25-.94-1.89l-.68,0v1.91h-1V49.36c.46,0,1.07-.1,1.54-.1,1,0,1.93.25,1.93,1.51a1.38,1.38,0,0,1-.93,1.43c.28.58.71,1.32,1.14,2Zm-1.62-2.61a4.28,4.28,0,0,0,1-.07.66.66,0,0,0,.51-.75c0-.59-.41-.69-.88-.69-.22,0-.46,0-.66,0Z"/>
    <path class="cls-1" d="M77.46,54.22v-4H76.14v-.84h3.59v.84H78.41v4Z"/>
    <path class="cls-1" d="M80.09,54.22V49.33h1v4.89Z"/>
    <path class="cls-1" d="M81.83,54.22V49.33h3.11v.84H82.79v1.22h1.77v.82H82.79v2Z"/>
    <path class="cls-1" d="M85.39,54.22V49.33h1v4.89Z"/>
    <path class="cls-1" d="M87.13,54.22V49.33h3v.84H88.09V51.3h1.72v.82H88.09v1.26h2.08v.84Z"/>
    <path class="cls-1" d="M90.69,49.39a11.85,11.85,0,0,1,1.53-.13c1.65,0,2.23.87,2.23,2.51s-.58,2.51-2.23,2.51a13.53,13.53,0,0,1-1.53-.08Zm1,4h.48c1.08,0,1.35-.46,1.35-1.67s-.27-1.67-1.35-1.67a3.77,3.77,0,0,0-.48,0Z"/>
    <path class="cls-1" d="M65.31,18.49V12.25h.93v6.24Z"/>
    <path class="cls-1" d="M67.23,17.61a9.41,9.41,0,0,0,1.47.14A2,2,0,0,0,70,17.4a.82.82,0,0,0,.26-.64c0-.61-.38-.81-1.45-1.13s-1.76-.76-1.76-1.82a1.53,1.53,0,0,1,.6-1.24,2.5,2.5,0,0,1,1.54-.42,9.74,9.74,0,0,1,1.72.19l-.11.78A8.38,8.38,0,0,0,69.38,13a2,2,0,0,0-1.07.22.67.67,0,0,0-.29.59c0,.64.49.82,1.52,1.13s1.69.74,1.69,1.83a1.68,1.68,0,0,1-.63,1.38,2.69,2.69,0,0,1-1.71.45,10,10,0,0,1-1.78-.18Z"/>
    <path class="cls-1" d="M71.67,15.37c0-2.12.8-3.22,2.69-3.22s2.7,1.1,2.7,3.22-.81,3.21-2.7,3.21S71.67,17.48,71.67,15.37Zm4.44,0c0-1.65-.5-2.39-1.75-2.39s-1.74.74-1.74,2.39.49,2.38,1.74,2.38S76.11,17,76.11,15.37Z"/>
    <path class="cls-1" d="M82.09,18.49V17.3H79.16v-.72c.7-1.31,1.58-2.83,2.47-4.33h1c-.9,1.47-1.73,2.89-2.48,4.24h1.93l.09-1.42H83v1.42h1v.81H83v1.19Z"/>
    <path class="cls-1" d="M84.42,17.61a9.11,9.11,0,0,0,1.52.15,1.75,1.75,0,0,0,1.25-.34,1.34,1.34,0,0,0,.3-1c0-.92-.42-1.23-1.3-1.23H84.42l.11-3h3.54v.82H85.39l0,1.36h1c1.33,0,2.12.56,2.12,2.05a2.1,2.1,0,0,1-.62,1.61,2.53,2.53,0,0,1-1.74.49,9.54,9.54,0,0,1-1.77-.18Z"/>
    <path class="cls-1" d="M89.08,15.37c0-2.1.43-3.22,2.25-3.22s2.25,1.12,2.25,3.22-.43,3.21-2.25,3.21S89.08,17.45,89.08,15.37Zm3.57,0c0-1.49-.09-2.41-1.32-2.41S90,13.88,90,15.37s.07,2.41,1.32,2.41S92.65,16.84,92.65,15.37Z"/>
    <path class="cls-1" d="M94.25,15.37c0-2.1.44-3.22,2.26-3.22s2.25,1.12,2.25,3.22-.44,3.21-2.25,3.21S94.25,17.45,94.25,15.37Zm3.58,0c0-1.49-.09-2.41-1.32-2.41s-1.33.92-1.33,2.41.08,2.41,1.33,2.41S97.83,16.84,97.83,15.37Z"/>
    <path class="cls-1" d="M100.39,18.49V13.18l-1.3.5-.28-.63,1.66-.8h.85v6.24Z"/>
    <path class="cls-1" d="M64.88,24.05c0-1.66.63-2.52,2.11-2.52s2.11.86,2.11,2.52-.63,2.52-2.11,2.52S64.88,25.7,64.88,24.05Zm3.47,0c0-1.29-.38-1.87-1.36-1.87s-1.37.58-1.37,1.87S66,25.92,67,25.92,68.35,25.34,68.35,24.05Z"/>
    <path class="cls-1" d="M72.09,26.29a3,3,0,0,1-1.2.28c-.92,0-1.51-.52-1.51-1.82,0-1.48.75-1.84,1.61-1.84A4.23,4.23,0,0,1,72,23l-.06.57a7,7,0,0,0-.8-.06c-.68,0-1,.26-1,1.21S70.36,26,71,26a2.4,2.4,0,0,0,.94-.22Z"/>
    <path class="cls-1" d="M75,26.29a3,3,0,0,1-1.2.28c-.92,0-1.51-.52-1.51-1.82,0-1.48.75-1.84,1.61-1.84a4.23,4.23,0,0,1,1,.11l-.06.57a6.83,6.83,0,0,0-.8-.06c-.67,0-1,.26-1,1.21s.29,1.21.88,1.21a2.4,2.4,0,0,0,.94-.22Z"/>
    <path class="cls-1" d="M77.65,26.49l-.06-.29a1.81,1.81,0,0,1-1.06.38,1.09,1.09,0,0,1-1.18-1.23V23H76v2.3c0,.47.2.66.61.66a1.9,1.9,0,0,0,.81-.2V23h.69v3.5Z"/>
    <path class="cls-1" d="M78.84,27.87V23h.52l.07.28a1.54,1.54,0,0,1,.95-.36c1,0,1.35.65,1.35,1.8,0,1.31-.41,1.86-1.38,1.86a4.25,4.25,0,0,1-.82-.1v1.4Zm.69-1.94a3.86,3.86,0,0,0,.75.06c.6,0,.75-.41.75-1.25s-.15-1.22-.74-1.22a1.84,1.84,0,0,0-.76.18Z"/>
    <path class="cls-1" d="M84.31,26.49l-.08-.29a1.57,1.57,0,0,1-1,.37A1.08,1.08,0,0,1,82,25.47a1,1,0,0,1,.38-.82,1.48,1.48,0,0,1,.94-.27l.76,0v-.29a.58.58,0,0,0-.14-.44.91.91,0,0,0-.62-.15,5.33,5.33,0,0,0-1,.11l-.11-.58a4.53,4.53,0,0,1,1.16-.15,1.6,1.6,0,0,1,1,.27,1.1,1.1,0,0,1,.34.9v2.41Zm-.19-1.57-.62,0c-.51,0-.75.18-.75.57a.53.53,0,0,0,.6.55,1.28,1.28,0,0,0,.77-.26Z"/>
    <path class="cls-1" d="M87.32,26.34a1.86,1.86,0,0,1-.84.21c-.57,0-.89-.32-.89-.95v-2h-.53v-.51l.55,0,0-1h.62v1h1v.57h-1v1.93c0,.26,0,.44.31.44a1.17,1.17,0,0,0,.51-.13Z"/>
    <path class="cls-1" d="M88,21.58a.4.4,0,0,1,.39.39.39.39,0,0,1-.39.38.38.38,0,0,1-.38-.38A.39.39,0,0,1,88,21.58Zm-.34,4.91V23h.69v3.5Z"/>
    <path class="cls-1" d="M90.4,26.57a1.49,1.49,0,0,1-1.1-.39,1.93,1.93,0,0,1-.47-1.44,1.93,1.93,0,0,1,.47-1.44,1.49,1.49,0,0,1,1.1-.39,1.51,1.51,0,0,1,1.11.39A1.92,1.92,0,0,1,92,24.74a1.92,1.92,0,0,1-.46,1.44A1.51,1.51,0,0,1,90.4,26.57Zm.88-1.83a1.51,1.51,0,0,0-.25-1,.79.79,0,0,0-.63-.24.78.78,0,0,0-.62.24,1.51,1.51,0,0,0-.25,1,1.49,1.49,0,0,0,.25,1,.78.78,0,0,0,.62.24.84.84,0,0,0,.63-.24A1.49,1.49,0,0,0,91.28,24.74Z"/>
    <path class="cls-1" d="M94.57,26.49v-2.3c0-.44-.21-.66-.59-.66a2,2,0,0,0-.85.22v2.74h-.69V23h.5l.06.32a1.77,1.77,0,0,1,1.07-.4,1.1,1.1,0,0,1,1.19,1.22v2.36Z"/>
    <path class="cls-1" d="M97.94,26.49l-.07-.29a1.58,1.58,0,0,1-1,.37,1.08,1.08,0,0,1-1.16-1.1,1,1,0,0,1,.37-.82,1.5,1.5,0,0,1,.94-.27l.77,0v-.29a.58.58,0,0,0-.14-.44.92.92,0,0,0-.63-.15,5.21,5.21,0,0,0-1,.11l-.11-.58a4.47,4.47,0,0,1,1.16-.15,1.6,1.6,0,0,1,1,.27,1.1,1.1,0,0,1,.34.9v2.41Zm-.18-1.57-.62,0c-.51,0-.75.18-.75.57A.53.53,0,0,0,97,26a1.28,1.28,0,0,0,.77-.26Z"/>
    <path class="cls-1" d="M99.11,26.49V21.61h.69v4.88Z"/>
    <path class="cls-1" d="M68,34.5V32.28H65.87V34.5h-.73V29.61h.73v2.05H68V29.61h.73V34.5Z"/>
    <path class="cls-1" d="M72.07,34.29a2.92,2.92,0,0,1-1.21.28c-1,0-1.59-.64-1.59-1.8,0-1,.44-1.85,1.51-1.85.85,0,1.34.6,1.34,1.55a3,3,0,0,1-.05.53H70a1.14,1.14,0,0,0,.23.72.93.93,0,0,0,.7.24,2.67,2.67,0,0,0,1-.22Zm-.6-1.84c0-.52-.15-.94-.71-.94S70,32,70,32.45Z"/>
    <path class="cls-1" d="M74.63,34.5l-.07-.3a1.53,1.53,0,0,1-1,.37,1.07,1.07,0,0,1-1.16-1.1,1,1,0,0,1,.38-.82,1.52,1.52,0,0,1,.94-.26c.24,0,.52,0,.76,0v-.3a.59.59,0,0,0-.14-.44.91.91,0,0,0-.62-.15,4.46,4.46,0,0,0-1,.12l-.11-.58a4.47,4.47,0,0,1,1.16-.15,1.6,1.6,0,0,1,1,.27,1.09,1.09,0,0,1,.34.9V34.5Zm-.18-1.57a6,6,0,0,0-.62,0c-.51,0-.75.18-.75.56a.54.54,0,0,0,.6.56,1.28,1.28,0,0,0,.77-.26Z"/>
    <path class="cls-1" d="M75.8,34.5V29.61h.69V34.5Z"/>
    <path class="cls-1" d="M79,34.35a1.9,1.9,0,0,1-.84.21c-.57,0-.89-.32-.89-1v-2h-.53v-.51l.55,0,.05-1H78v1h1v.57H78V33.5c0,.25,0,.44.31.44a1.32,1.32,0,0,0,.51-.13Z"/>
    <path class="cls-1" d="M81.52,34.5V32.2c0-.45-.2-.66-.59-.66a2,2,0,0,0-.85.22V34.5h-.69V29.61h.69v1.63a1.63,1.63,0,0,1,.94-.32,1.09,1.09,0,0,1,1.19,1.22V34.5Z"/>
    <path class="cls-1" d="M86.35,34.5l-.07-.3a1.53,1.53,0,0,1-1,.37,1.07,1.07,0,0,1-1.16-1.1,1,1,0,0,1,.37-.82,1.56,1.56,0,0,1,.94-.26c.25,0,.53,0,.77,0v-.3a.59.59,0,0,0-.14-.44.94.94,0,0,0-.63-.15,4.44,4.44,0,0,0-1,.12l-.11-.58a4.47,4.47,0,0,1,1.16-.15,1.6,1.6,0,0,1,1,.27,1.09,1.09,0,0,1,.34.9V34.5Zm-.18-1.57a6,6,0,0,0-.62,0c-.51,0-.75.18-.75.56a.54.54,0,0,0,.6.56,1.28,1.28,0,0,0,.77-.26Z"/>
    <path class="cls-1" d="M89.65,34.5V32.2c0-.45-.2-.66-.59-.66a2,2,0,0,0-.85.22V34.5h-.69V31H88l.06.32a1.78,1.78,0,0,1,1.06-.39,1.09,1.09,0,0,1,1.19,1.22V34.5Z"/>
    <path class="cls-1" d="M93.17,34.5l-.07-.28a1.59,1.59,0,0,1-.95.35c-1,0-1.35-.64-1.35-1.79,0-1.32.41-1.86,1.38-1.86A4.25,4.25,0,0,1,93,31V29.61h.69V34.5ZM93,31.59a4.74,4.74,0,0,0-.75-.06c-.6,0-.75.41-.75,1.25s.15,1.23.74,1.23A1.53,1.53,0,0,0,93,33.8Z"/>
    <path class="cls-1" d="M95.85,33.82a8.49,8.49,0,0,0,1.15.1,1.55,1.55,0,0,0,1-.27.66.66,0,0,0,.21-.5c0-.48-.3-.64-1.14-.89s-1.38-.59-1.38-1.42a1.18,1.18,0,0,1,.47-1,1.9,1.9,0,0,1,1.2-.33,6.65,6.65,0,0,1,1.35.15l-.09.61a5.92,5.92,0,0,0-1.13-.11,1.59,1.59,0,0,0-.84.17.55.55,0,0,0-.23.46c0,.5.39.64,1.19.89S99,32.28,99,33.14a1.31,1.31,0,0,1-.49,1.08,2.15,2.15,0,0,1-1.34.35,7.52,7.52,0,0,1-1.39-.14Z"/>
    <path class="cls-1" d="M101.57,34.5l-.08-.3a1.5,1.5,0,0,1-1,.37,1.07,1.07,0,0,1-1.16-1.1,1,1,0,0,1,.37-.82,1.54,1.54,0,0,1,.94-.26c.24,0,.52,0,.77,0v-.3a.59.59,0,0,0-.15-.44.91.91,0,0,0-.62-.15,4.54,4.54,0,0,0-1,.12l-.1-.58a4.39,4.39,0,0,1,1.15-.15,1.63,1.63,0,0,1,1.06.27,1.09,1.09,0,0,1,.34.9V34.5Zm-.18-1.57a6.22,6.22,0,0,0-.63,0c-.5,0-.75.18-.75.56a.54.54,0,0,0,.6.56,1.33,1.33,0,0,0,.78-.26Z"/>
    <path class="cls-1" d="M103,34.5V31.56h-.52v-.51l.52,0v-.38a1.17,1.17,0,0,1,.27-.84,1.27,1.27,0,0,1,.9-.26,4.36,4.36,0,0,1,.51,0l0,.57h-.47c-.18,0-.31,0-.37.12a.61.61,0,0,0-.11.45V31h.77v.57h-.77V34.5Z"/>
    <path class="cls-1" d="M107.31,34.29a2.92,2.92,0,0,1-1.21.28c-1,0-1.59-.64-1.59-1.8,0-1,.44-1.85,1.51-1.85.85,0,1.34.6,1.34,1.55a3,3,0,0,1,0,.53h-2.1a1.14,1.14,0,0,0,.23.72.93.93,0,0,0,.7.24,2.67,2.67,0,0,0,1-.22Zm-.6-1.84c0-.52-.15-.94-.71-.94s-.75.45-.78.94Z"/>
    <path class="cls-1" d="M109.67,34.35a1.93,1.93,0,0,1-.84.21.84.84,0,0,1-.9-1v-2h-.52v-.51l.54,0,.06-1h.61v1h1v.57h-1V33.5c0,.25,0,.44.31.44a1.24,1.24,0,0,0,.51-.13Z"/>
    <path class="cls-1" d="M110.62,35.88c.21-.54.38-1,.5-1.38h-.37a34.2,34.2,0,0,1-1-3.51h.72c.23,1,.49,2,.79,3h.06c.28-.85.57-2,.8-3h.71a40.67,40.67,0,0,1-1.49,4.89Z"/>
    <path class="cls-1" d="M69.17,42.51c0-1.31-.1-2.65-.16-3.94h0l-1.11,3.11h-.78L66,38.57h0c-.06,1.29-.12,2.63-.16,3.94H65c0-1.63.14-3.26.23-4.89h1.06l1.12,3.24h0l1.12-3.24h1.06c.1,1.63.18,3.26.23,4.89Z"/>
    <path class="cls-1" d="M72.62,42.51l-.08-.3a1.55,1.55,0,0,1-1,.37,1.08,1.08,0,0,1-1.16-1.1,1,1,0,0,1,.37-.82,1.47,1.47,0,0,1,.94-.26c.24,0,.52,0,.76,0v-.3a.59.59,0,0,0-.14-.44.91.91,0,0,0-.62-.15,5.33,5.33,0,0,0-1,.11l-.1-.57a4,4,0,0,1,1.15-.16,1.54,1.54,0,0,1,1,.28,1.08,1.08,0,0,1,.34.89v2.42Zm-.19-1.58-.62,0c-.51,0-.75.18-.75.57a.53.53,0,0,0,.6.55,1.27,1.27,0,0,0,.77-.25Z"/>
    <path class="cls-1" d="M75.92,42.51v-2.3c0-.45-.21-.66-.6-.66a1.91,1.91,0,0,0-.85.22v2.74h-.69V39h.51l.06.32a1.84,1.84,0,0,1,1.07-.4,1.1,1.1,0,0,1,1.19,1.23v2.36Z"/>
    <path class="cls-1" d="M79.29,42.51l-.07-.3a1.58,1.58,0,0,1-1,.37A1.08,1.08,0,0,1,77,41.48a1,1,0,0,1,.37-.82,1.49,1.49,0,0,1,.94-.26c.25,0,.53,0,.77,0v-.3a.59.59,0,0,0-.14-.44.94.94,0,0,0-.63-.15,5.11,5.11,0,0,0-1,.11l-.11-.57a4,4,0,0,1,1.15-.16,1.57,1.57,0,0,1,1.06.28,1.08,1.08,0,0,1,.34.89v2.42Zm-.18-1.58-.62,0c-.51,0-.75.18-.75.57a.53.53,0,0,0,.6.55,1.29,1.29,0,0,0,.77-.25Z"/>
    <path class="cls-1" d="M82.48,42.31a1.52,1.52,0,0,1-.83.27c-1,0-1.36-.64-1.36-1.8,0-1.31.41-1.86,1.38-1.86a5.12,5.12,0,0,1,1.51.25v3.65a1.14,1.14,0,0,1-.32.84,1.63,1.63,0,0,1-1.08.3,6.42,6.42,0,0,1-1.13-.12l.09-.59a6.25,6.25,0,0,0,.94.09,1,1,0,0,0,.67-.16.61.61,0,0,0,.13-.43Zm0-2.7a4.14,4.14,0,0,0-.74-.07c-.6,0-.75.41-.75,1.25s.16,1.22.74,1.22a1.71,1.71,0,0,0,.75-.16Z"/>
    <path class="cls-1" d="M86.37,42.3a3.09,3.09,0,0,1-1.22.28c-1,0-1.58-.64-1.58-1.8,0-1,.44-1.86,1.51-1.86.85,0,1.34.61,1.34,1.55a2.81,2.81,0,0,1,0,.53h-2.1a1.14,1.14,0,0,0,.23.72.9.9,0,0,0,.7.25,2.72,2.72,0,0,0,1-.22Zm-.6-1.84c0-.53-.15-.94-.71-.94s-.76.45-.79.94Z"/>
    <path class="cls-1" d="M91,42.51V40.18c0-.44-.21-.63-.6-.63a1.71,1.71,0,0,0-.81.24,3.13,3.13,0,0,1,0,.43v2.29h-.69V40.18c0-.44-.21-.63-.59-.63a1.55,1.55,0,0,0-.78.21v2.75h-.69V39h.5l.06.32a1.78,1.78,0,0,1,1.06-.4,1,1,0,0,1,.91.45,1.75,1.75,0,0,1,1.09-.45c.78,0,1.19.44,1.19,1.29v2.3Z"/>
    <path class="cls-1" d="M94.86,42.3a3,3,0,0,1-1.21.28c-1,0-1.59-.64-1.59-1.8,0-1,.44-1.86,1.51-1.86.85,0,1.35.61,1.35,1.55a2.76,2.76,0,0,1-.06.53h-2.1a1.15,1.15,0,0,0,.24.72.9.9,0,0,0,.7.25,2.62,2.62,0,0,0,1-.22Zm-.6-1.84c0-.53-.15-.94-.71-.94s-.75.45-.78.94Z"/>
    <path class="cls-1" d="M97.5,42.51v-2.3c0-.45-.2-.66-.59-.66a1.91,1.91,0,0,0-.85.22v2.74h-.69V39h.51l.06.32a1.78,1.78,0,0,1,1.06-.4,1.1,1.1,0,0,1,1.19,1.23v2.36Z"/>
    <path class="cls-1" d="M100.67,42.35a1.9,1.9,0,0,1-.84.22c-.57,0-.89-.32-.89-1v-2h-.53v-.51L99,39,99,38h.62v1h1v.57h-1V41.5c0,.26,0,.44.31.44a1.17,1.17,0,0,0,.51-.13Z"/>
    <text/>
    <path class="cls-1" d="M99.58,65.7H29.86a.75.75,0,0,1-.74-.75.74.74,0,0,1,.74-.74H99.58a28.37,28.37,0,1,0,0-56.74H44.79a.75.75,0,0,1,0-1.5H99.58a29.87,29.87,0,0,1,0,59.73Z"/>
    <path class="cls-1" d="M31.6,28.74a6.35,6.35,0,0,1,12.68,0ZM37,43.79c-.9-2.64-3-4-4.83-5.2-2-1.3-2.83-2-2.86-3.22a3.08,3.08,0,0,1,3-3.11H43.36Zm-8.57,10a10.06,10.06,0,0,0,1.49.13,7.79,7.79,0,0,0,1.49-.13L29.87,56.5ZM26.57,32.26a6.78,6.78,0,0,0-.76,3h0a.41.41,0,0,0,0,.11h0c.05,3.31,2.49,4.9,4.46,6.19,2.34,1.52,3.66,2.5,3.66,5s-1.95,3.9-4.36,3.9a5.2,5.2,0,0,1-4.27-2.2l-.69-1.2L16.3,32.26ZM22,22.7a6.4,6.4,0,0,1,6.33,6H15.61a6.42,6.42,0,0,1,6.34-6m16-3.36a9.47,9.47,0,0,0-8,4.37,9.45,9.45,0,0,0-8-4.37,9.82,9.82,0,0,0-9.8,9.83v1A5.51,5.51,0,0,0,13,33.26L29.87,62.34s16-27.62,16.79-29.08a5.57,5.57,0,0,0,.92-3.09v-1a9.75,9.75,0,0,0-9.64-9.83"/>
    <path class="cls-1" d="M23.8,5.22a5.31,5.31,0,0,0-2.87.86V0H18.54V16.46h1.4l.39-.88a5.56,5.56,0,0,0,3.47,1.14c3.12,0,4.27-2.15,4.27-5.75S26.92,5.22,23.8,5.22m-.56,2.09c2.1,0,2.42,1.64,2.42,3.66s-.32,3.67-2.42,3.67A4.5,4.5,0,0,1,20.93,14V7.94a4.51,4.51,0,0,1,2.31-.63M31.1,8.65c0-1,.79-1.36,2.06-1.36a8.78,8.78,0,0,1,3.27.61V5.77a8.06,8.06,0,0,0-3.32-.55c-3.14,0-4.34,1.6-4.34,3.49s.79,2.92,4,3.21c1.43.13,1.78.54,1.78,1.36s-.84,1.36-2.55,1.36A9.15,9.15,0,0,1,28.84,14v2.1a9.78,9.78,0,0,0,3.53.59c3.42,0,4.55-1.64,4.55-3.53s-.83-3-4-3.31c-1.39-.14-1.78-.47-1.78-1.23m9.62,8a2.26,2.26,0,0,0,.47-.05v-2c-.69,0-.9-.22-.9-.83V5.49H37.9v8.27c0,1.89.88,2.86,2.82,2.86M37.53,2.24a1.57,1.57,0,1,0,3.13,0,1.57,1.57,0,1,0-3.13,0"/>
    <path class="cls-1" d="M29.86,65.7A29.87,29.87,0,0,1,14.55,10.19a.74.74,0,1,1,.76,1.28A28.38,28.38,0,1,0,58.23,35.84,28.16,28.16,0,0,0,44.41,11.47a.75.75,0,0,1-.26-1,.76.76,0,0,1,1-.26A29.87,29.87,0,0,1,29.86,65.7Z"/>
  </g>
</svg>