<svg xmlns:xlink="http://www.w3.org/1999/xlink" xmlns="http://www.w3.org/2000/svg" viewBox="0 0 129.31 65.63" width="129.31"  height="65.63" >
  <defs>
    <style>.cls-1{fill:#fff;}</style>
  </defs>
  <g data-name="Scheme type" id="Scheme_type">
    <path class="cls-1" d="M68.59,54.49a3.27,3.27,0,0,1-1.35.25,2.39,2.39,0,0,1-2.53-2.59,2.54,2.54,0,0,1,2.67-2.68,2.84,2.84,0,0,1,1.22.22l-.16.54a2.43,2.43,0,0,0-1-.21,1.91,1.91,0,0,0-2,2.11,1.86,1.86,0,0,0,2,2A2.58,2.58,0,0,0,68.45,54Z"/>
    <path class="cls-1" d="M71.68,52.26h-2v1.85h2.22v.55H69V49.55h2.76v.55h-2.1v1.62h2Z"/>
    <path class="cls-1" d="M72.38,49.62a6.67,6.67,0,0,1,1.27-.11,2.1,2.1,0,0,1,1.48.42,1.29,1.29,0,0,1,.4,1,1.35,1.35,0,0,1-1,1.3v0a1.29,1.29,0,0,1,.75,1,7.42,7.42,0,0,0,.39,1.4H75a5.7,5.7,0,0,1-.34-1.22c-.15-.71-.43-1-1-1H73v2.21h-.66ZM73,52h.68c.7,0,1.15-.39,1.15-1S74.39,50,73.69,50a2.74,2.74,0,0,0-.65.06Z"/>
    <path class="cls-1" d="M77.12,50.11H75.56v-.56h3.79v.56H77.79v4.55h-.67Z"/>
    <path class="cls-1" d="M80.19,49.55v5.11h-.66V49.55Z"/>
    <path class="cls-1" d="M81,49.55h2.76v.55h-2.1v1.7h1.94v.55H81.62v2.31H81Z"/>
    <path class="cls-1" d="M84.94,49.55v5.11h-.66V49.55Z"/>
    <path class="cls-1" d="M88.35,52.26h-2v1.85h2.21v.55H85.71V49.55h2.76v.55h-2.1v1.62h2Z"/>
    <path class="cls-1" d="M89.06,49.62a9.47,9.47,0,0,1,1.4-.11,2.91,2.91,0,0,1,2.07.64A2.34,2.34,0,0,1,93.25,52a2.69,2.69,0,0,1-.74,2,3.12,3.12,0,0,1-2.26.74,9.9,9.9,0,0,1-1.19-.07Zm.66,4.52a4.24,4.24,0,0,0,.66,0A2,2,0,0,0,92.56,52a1.82,1.82,0,0,0-2.07-2,3.53,3.53,0,0,0-.77.07Z"/>
  </g>
  <g data-name="Scheme text" id="Scheme_text">
    <path class="cls-1" d="M65.24,18.47V12.23h.93v6.24Z"/>
    <path class="cls-1" d="M67.16,17.59a9.41,9.41,0,0,0,1.47.14A2,2,0,0,0,70,17.38a.86.86,0,0,0,.26-.64c0-.61-.38-.81-1.45-1.13S67,14.86,67,13.8a1.51,1.51,0,0,1,.6-1.24,2.41,2.41,0,0,1,1.53-.42,8.9,8.9,0,0,1,1.73.19l-.12.77A9.6,9.6,0,0,0,69.31,13a2,2,0,0,0-1.08.22.69.69,0,0,0-.29.58c0,.64.5.82,1.52,1.13s1.7.74,1.7,1.83a1.68,1.68,0,0,1-.63,1.38,2.73,2.73,0,0,1-1.71.45A10,10,0,0,1,67,18.38Z"/>
    <path class="cls-1" d="M71.59,15.35c0-2.11.81-3.21,2.7-3.21S77,13.24,77,15.35s-.81,3.21-2.69,3.21S71.59,17.46,71.59,15.35Zm4.44,0c0-1.65-.5-2.38-1.74-2.38s-1.75.73-1.75,2.38.5,2.38,1.75,2.38S76,17,76,15.35Z"/>
    <path class="cls-1" d="M80.33,18.47v-5.3l-1.3.49L78.75,13l1.66-.81h.85v6.24Z"/>
    <path class="cls-1" d="M85,18.47V17.29H82.09v-.73c.7-1.31,1.58-2.83,2.47-4.33h1c-.9,1.47-1.73,2.9-2.47,4.24H85l.09-1.41h.84v1.41h1v.82h-1v1.18Z"/>
    <path class="cls-1" d="M87.31,15.35c0-2.09.43-3.21,2.25-3.21s2.25,1.12,2.25,3.21-.44,3.21-2.25,3.21S87.31,17.43,87.31,15.35Zm3.57,0c0-1.48-.09-2.4-1.32-2.4s-1.32.92-1.32,2.4.07,2.41,1.32,2.41S90.88,16.82,90.88,15.35Z"/>
    <path class="cls-1" d="M92.48,15.35c0-2.09.43-3.21,2.25-3.21S97,13.26,97,15.35s-.44,3.21-2.25,3.21S92.48,17.43,92.48,15.35Zm3.57,0c0-1.48-.09-2.4-1.32-2.4s-1.32.92-1.32,2.4.07,2.41,1.32,2.41S96.05,16.82,96.05,15.35Z"/>
    <path class="cls-1" d="M98.61,18.47v-5.3l-1.3.49L97,13l1.66-.81h.85v6.24Z"/>
    <path class="cls-1" d="M65.07,26.46V21.58H68v.65H65.8v1.4h1.78v.64H65.8v1.55H68v.64Z"/>
    <path class="cls-1" d="M70.57,26.46V24.17c0-.45-.2-.66-.59-.66a1.87,1.87,0,0,0-.85.22v2.73h-.69V23H69l.06.32a1.78,1.78,0,0,1,1.06-.39,1.09,1.09,0,0,1,1.19,1.22v2.35Z"/>
    <path class="cls-1" d="M72.61,26.46A23.52,23.52,0,0,1,71.53,23h.71a24,24,0,0,0,.83,3h.06A24,24,0,0,0,74,23h.71a23.52,23.52,0,0,1-1.08,3.5Z"/>
    <path class="cls-1" d="M75.34,21.56a.39.39,0,1,1,0,.77.39.39,0,0,1,0-.77ZM75,26.46V23h.69v3.5Z"/>
    <path class="cls-1" d="M76.38,26.46V23h.52l.09.43h0a1.12,1.12,0,0,1,1-.5,1.85,1.85,0,0,1,.3,0l0,.63a2.73,2.73,0,0,0-.41,0,1.3,1.3,0,0,0-.83.26v2.69Z"/>
    <path class="cls-1" d="M80,26.54a1.53,1.53,0,0,1-1.11-.39,2,2,0,0,1-.46-1.44,2,2,0,0,1,.46-1.44,1.81,1.81,0,0,1,2.22,0,2,2,0,0,1,.46,1.44,2,2,0,0,1-.46,1.44A1.53,1.53,0,0,1,80,26.54Zm.87-1.83a1.48,1.48,0,0,0-.25-1,.79.79,0,0,0-.62-.25.78.78,0,0,0-.62.25,1.42,1.42,0,0,0-.25,1,1.42,1.42,0,0,0,.25,1,.77.77,0,0,0,.62.24.82.82,0,0,0,.62-.24A1.48,1.48,0,0,0,80.83,24.71Z"/>
    <path class="cls-1" d="M84.12,26.46V24.17c0-.45-.21-.66-.59-.66a1.84,1.84,0,0,0-.85.22v2.73H82V23h.51l.06.32a1.78,1.78,0,0,1,1.06-.39,1.09,1.09,0,0,1,1.19,1.22v2.35Z"/>
    <path class="cls-1" d="M89.56,26.46V24.14c0-.43-.21-.63-.6-.63a1.68,1.68,0,0,0-.81.24,3.28,3.28,0,0,1,0,.43v2.28H87.5V24.14c0-.43-.21-.63-.59-.63a1.55,1.55,0,0,0-.78.21v2.74h-.69V23h.5l.06.32a1.78,1.78,0,0,1,1.06-.39,1,1,0,0,1,.91.44,1.72,1.72,0,0,1,1.09-.44c.78,0,1.19.43,1.19,1.29v2.28Z"/>
    <path class="cls-1" d="M93.42,26.26a3.09,3.09,0,0,1-1.22.28c-1,0-1.58-.64-1.58-1.8,0-1,.44-1.85,1.51-1.85.85,0,1.34.6,1.34,1.54a2.81,2.81,0,0,1,0,.53h-2.1a1.14,1.14,0,0,0,.23.72.9.9,0,0,0,.7.25,2.72,2.72,0,0,0,1-.22Zm-.6-1.84c0-.53-.15-.94-.72-.94s-.75.45-.78.94Z"/>
    <path class="cls-1" d="M96.05,26.46V24.17c0-.45-.2-.66-.59-.66a1.91,1.91,0,0,0-.85.22v2.73h-.69V23h.51l.06.32a1.78,1.78,0,0,1,1.06-.39,1.09,1.09,0,0,1,1.19,1.22v2.35Z"/>
    <path class="cls-1" d="M99.22,26.31a1.93,1.93,0,0,1-.84.21.83.83,0,0,1-.9-.95v-2H97V23l.55,0,0-1h.61v1h1v.57h-1v1.93c0,.26,0,.44.31.44a1.1,1.1,0,0,0,.51-.13Z"/>
    <path class="cls-1" d="M101.63,26.46l-.08-.29a1.55,1.55,0,0,1-1,.37,1.08,1.08,0,0,1-1.16-1.1,1,1,0,0,1,.37-.82,1.49,1.49,0,0,1,.94-.26c.24,0,.52,0,.77,0v-.3a.59.59,0,0,0-.15-.44.91.91,0,0,0-.62-.15,5.11,5.11,0,0,0-1,.11L99.59,23a4.39,4.39,0,0,1,1.15-.15,1.63,1.63,0,0,1,1.06.27,1.08,1.08,0,0,1,.34.89v2.41Zm-.18-1.56a6,6,0,0,0-.62,0c-.51,0-.75.18-.75.57a.53.53,0,0,0,.59.55,1.32,1.32,0,0,0,.78-.25Z"/>
    <path class="cls-1" d="M102.8,26.46V21.58h.69v4.88Z"/>
    <path class="cls-1" d="M69.09,34.46c0-1.3-.09-2.64-.16-3.93h0l-1.11,3.11H67L65.9,30.53h0c-.06,1.29-.12,2.63-.15,3.93H65c0-1.62.14-3.25.23-4.88h1.06l1.12,3.24h0l1.12-3.24H69.6c.09,1.63.18,3.26.23,4.88Z"/>
    <path class="cls-1" d="M72.54,34.46l-.08-.29a1.53,1.53,0,0,1-1,.37,1.08,1.08,0,0,1-1.16-1.1,1,1,0,0,1,.37-.82,1.49,1.49,0,0,1,.94-.26c.25,0,.53,0,.77,0v-.3a.56.56,0,0,0-.15-.44.89.89,0,0,0-.62-.15,5.11,5.11,0,0,0-1,.11L70.5,31a4.37,4.37,0,0,1,1.15-.16,1.63,1.63,0,0,1,1.06.28,1.08,1.08,0,0,1,.34.89v2.41Zm-.18-1.57-.62,0c-.51,0-.75.18-.75.57a.53.53,0,0,0,.6.55,1.3,1.3,0,0,0,.77-.26Z"/>
    <path class="cls-1" d="M75.84,34.46V32.17c0-.45-.21-.66-.59-.66a1.84,1.84,0,0,0-.85.22v2.73h-.69V31h.5l.07.32a1.78,1.78,0,0,1,1.06-.4,1.1,1.1,0,0,1,1.19,1.23v2.35Z"/>
    <path class="cls-1" d="M79.21,34.46l-.08-.29a1.55,1.55,0,0,1-1,.37A1.08,1.08,0,0,1,77,33.44a1,1,0,0,1,.37-.82,1.49,1.49,0,0,1,.94-.26c.24,0,.52,0,.77,0v-.3a.59.59,0,0,0-.15-.44.91.91,0,0,0-.62-.15,5.11,5.11,0,0,0-1,.11L77.17,31a4.37,4.37,0,0,1,1.15-.16,1.63,1.63,0,0,1,1.06.28,1.11,1.11,0,0,1,.34.89v2.41ZM79,32.89l-.62,0c-.51,0-.76.18-.76.57a.53.53,0,0,0,.6.55,1.33,1.33,0,0,0,.78-.26Z"/>
    <path class="cls-1" d="M82.4,34.27a1.55,1.55,0,0,1-.84.27c-1,0-1.35-.65-1.35-1.8,0-1.31.41-1.86,1.38-1.86a5.11,5.11,0,0,1,1.5.25v3.65a1.06,1.06,0,0,1-.32.83,1.58,1.58,0,0,1-1.08.31,6.53,6.53,0,0,1-1.13-.12l.1-.59a7.91,7.91,0,0,0,.94.09,1,1,0,0,0,.66-.16.63.63,0,0,0,.14-.43Zm0-2.7a4.23,4.23,0,0,0-.74-.07c-.6,0-.75.41-.75,1.25s.15,1.22.74,1.22a1.62,1.62,0,0,0,.75-.17Z"/>
    <path class="cls-1" d="M86.28,34.26a3.08,3.08,0,0,1-1.21.28c-1,0-1.59-.65-1.59-1.81,0-1,.44-1.85,1.51-1.85.85,0,1.34.61,1.34,1.55a2.81,2.81,0,0,1,0,.53h-2.1a1.14,1.14,0,0,0,.23.72.9.9,0,0,0,.7.24,2.53,2.53,0,0,0,1-.22Zm-.6-1.84c0-.53-.15-.94-.71-.94s-.75.45-.78.94Z"/>
    <path class="cls-1" d="M90.91,34.46V32.14c0-.44-.21-.63-.6-.63a1.65,1.65,0,0,0-.81.24,3.13,3.13,0,0,1,0,.43v2.28h-.69V32.14c0-.44-.21-.63-.59-.63a1.58,1.58,0,0,0-.79.21v2.74h-.69V31h.51l.06.32a1.76,1.76,0,0,1,1.06-.4,1,1,0,0,1,.91.45,1.73,1.73,0,0,1,1.09-.45c.78,0,1.19.44,1.19,1.29v2.29Z"/>
    <path class="cls-1" d="M94.76,34.26a3,3,0,0,1-1.21.28c-1,0-1.58-.65-1.58-1.81,0-1,.44-1.85,1.51-1.85.85,0,1.34.61,1.34,1.55a2.15,2.15,0,0,1-.06.53H92.67a1.14,1.14,0,0,0,.23.72.9.9,0,0,0,.7.24,2.53,2.53,0,0,0,1-.22Zm-.59-1.84c0-.53-.16-.94-.72-.94s-.75.45-.78.94Z"/>
    <path class="cls-1" d="M97.4,34.46V32.17c0-.45-.2-.66-.59-.66a1.87,1.87,0,0,0-.85.22v2.73h-.69V31h.51l.06.32a1.78,1.78,0,0,1,1.06-.4,1.1,1.1,0,0,1,1.19,1.23v2.35Z"/>
    <path class="cls-1" d="M100.57,34.31a1.93,1.93,0,0,1-.84.21.83.83,0,0,1-.9-1v-2h-.52V31l.55,0,0-1h.61v1h1v.57h-1v1.93c0,.26,0,.44.31.44a1.1,1.1,0,0,0,.51-.13Z"/>
    <text/>
  </g>
  <g data-name="Key line" id="Key_line">
    <path class="cls-1" d="M99.47,65.63H29.83a.75.75,0,0,1,0-1.49H99.47a28.34,28.34,0,1,0,0-56.68H44.75A.76.76,0,0,1,44,6.71.75.75,0,0,1,44.75,6H99.47a29.83,29.83,0,1,1,0,59.66Z"/>
  </g>
  <g id="Roundel">
    <path class="cls-1" d="M31.57,28.71a6.34,6.34,0,0,1,12.66,0Zm5.34,15c-.9-2.64-3-4-4.82-5.2-2-1.3-2.83-2-2.87-3.22a3.09,3.09,0,0,1,3-3.1H43.32Zm-8.56,10a9.46,9.46,0,0,0,1.49.14,8.51,8.51,0,0,0,1.49-.14l-1.49,2.67ZM26.54,32.23a6.78,6.78,0,0,0-.76,3h0v.11h0c0,3.3,2.49,4.89,4.46,6.17,2.34,1.53,3.66,2.51,3.66,5s-2,3.9-4.36,3.9a5.2,5.2,0,0,1-4.27-2.2l-.69-1.19-8.3-14.82Zm-4.62-9.55a6.4,6.4,0,0,1,6.33,6H15.6a6.39,6.39,0,0,1,6.32-6m16-3.36a9.45,9.45,0,0,0-8,4.37,9.45,9.45,0,0,0-8-4.37,9.82,9.82,0,0,0-9.78,9.82s0,.05,0,1A5.47,5.47,0,0,0,13,33.22L29.84,62.28s16-27.6,16.77-29.06a5.55,5.55,0,0,0,.92-3.09v-1a9.74,9.74,0,0,0-9.63-9.82"/>
    <path class="cls-1" d="M23.77,5.22a5.35,5.35,0,0,0-2.86.85V0H18.52V16.45h1.4l.39-.89a5.49,5.49,0,0,0,3.46,1.15C26.89,16.71,28,14.56,28,11s-1.15-5.74-4.27-5.74M23.21,7.3c2.1,0,2.42,1.64,2.42,3.66s-.32,3.67-2.42,3.67a4.45,4.45,0,0,1-2.3-.64v-6a4.36,4.36,0,0,1,2.3-.64m7.86,1.34c0-1,.79-1.36,2-1.36a8.7,8.7,0,0,1,3.27.61V5.76a8,8,0,0,0-3.31-.54c-3.14,0-4.34,1.6-4.34,3.48s.79,2.92,4,3.21c1.43.12,1.77.54,1.77,1.35,0,1-.83,1.37-2.54,1.37A9.12,9.12,0,0,1,28.81,14v2.1a9.73,9.73,0,0,0,3.52.6c3.42,0,4.55-1.65,4.55-3.53,0-2-.83-3-4-3.31-1.39-.14-1.78-.47-1.78-1.23m9.61,8a2.38,2.38,0,0,0,.47-.05v-2c-.69,0-.9-.22-.9-.84V5.48H37.86v8.27c0,1.88.88,2.85,2.82,2.85M37.49,2.23a1.56,1.56,0,1,0,3.12,0,1.56,1.56,0,1,0-3.12,0"/>
    <path class="cls-1" d="M29.83,65.63a29.84,29.84,0,0,1-15.3-55.45.75.75,0,1,1,.77,1.28A28.34,28.34,0,1,0,58.17,35.8,28.12,28.12,0,0,0,44.36,11.46a.75.75,0,0,1,.77-1.28,29.84,29.84,0,0,1-15.3,55.45Z"/>
  </g>
</svg>