<svg xmlns:xlink="http://www.w3.org/1999/xlink" xmlns="http://www.w3.org/2000/svg" title="Ctech Europe" class="Logo__StyledSvg-sc-1w5t2pv-1 eNvHDP" height="58" viewBox="0 0 177 58" width="177"><defs><linearGradient id="a" x1=".156436%" x2="126.349983%" y1="42.860206%" y2="42.860206%"><stop offset="0" stop-color="#223773"></stop><stop offset="1" stop-color="#2d437c"></stop></linearGradient></defs><linearGradient id="a" x1=".156436%" x2="126.349983%" y1="42.860206%" y2="42.860206%"><stop offset="0" stop-color="#223773"></stop><stop offset="1" stop-color="#2d437c"></stop></linearGradient><mask id="b" fill="#FFFFFF"><path d="m.1643976.02966557h25.8003224v37.73993443h-25.8003224z" fill="#FFFFFF" fill-rule="evenodd"></path></mask><mask id="c" fill="#FFFFFF"><path d="m1.50893671 28.9918957c-.65658228 1.6669565-1.06977215 3.4508347-1.19964557 5.3121913-.0038481.0460173-.00817722.0925043-.0115443.1385217-.00673418.1192696-.01298735.2394783-.01827849.3587478-.0115443.2530957-.0192405.5066609-.0192405.7621044v.0032869.0004696.0009391c0 10.1214783 8.4056962 18.3271305 18.77296205 18.3271305h.000962.000962c10.3696709 0 18.7753671-8.2056522 18.7753671-18.3285392 0-2.3393739-.4535949-4.5740348-1.2717975-6.6312-3.5546835-9.5772521-13.5924557-18.1806261-17.5054936-28.69982606-3.9154431 10.54033046-13.98977218 19.15685216-17.52425319 28.75617396z" fill="#FFFFFF" fill-rule="evenodd"></path></mask><mask id="d" fill="#FFFFFF"><path d="m1.50893671 28.9918957c-.65658228 1.6669565-1.06977215 3.4508347-1.19964557 5.3121913-.0038481.0460173-.00817722.0925043-.0115443.1385217-.00673418.1192696-.01298735.2394783-.01827849.3587478-.0115443.2530957-.0192405.5066609-.0192405.7621044v.0032869.0004696.0009391c0 10.1214783 8.4056962 18.3271305 18.77296205 18.3271305h.000962.000962c10.3696709 0 18.7753671-8.2056522 18.7753671-18.3285392 0-2.3393739-.4535949-4.5740348-1.2717975-6.6312-3.5546835-9.5772521-13.5924557-18.1806261-17.5054936-28.69982606-3.9154431 10.54033046-13.98977218 19.15685216-17.52425319 28.75617396z" fill="#FFFFFF" fill-rule="evenodd"></path></mask><mask id="e" fill="#FFFFFF"><path d="m.02857143 18.2132813c4.20428571 7.456875 13.82619047 21.6 27.33714287 26.3667187.0004762.0004688.0019047.0004688.0023809.0009375 1.5552381-2.6746875 2.4442858-5.773125 2.4442858-9.0759375 0-2.3353125-.4490477-4.5660937-1.2590477-6.6196875-3.5190476-9.560625-13.4561904-18.1490625-17.33-28.65-2.3933333 6.49734375-7.11142854 12.2620312-11.19476187 17.9779688" fill="#FFFFFF" fill-rule="evenodd"></path></mask><g fill="none" fill-rule="evenodd"><g fill="#FEFEFE"><path d="m50.7641664 36.798718c-2.105592-1.0596885-3.772696-2.6418524-5.004144-4.7441147-1.230976-2.1027377-1.846464-4.6090984-1.846464-7.5209836 0-2.8748033.623512-5.365 1.872896-7.4667869 1.249384-2.1036885 2.943864-3.7110492 5.084856-4.8254098 2.141936-1.1134099 4.55008-1.6720164 7.22632-1.6720164 1.74876 0 3.398872.2438852 4.951752.7278524 1.4278.4468853 2.71164 1.0682459 3.851992 1.8636066.166144.1155246.206736.3494262.09676.5191475l-2.53936 3.9064426c-.11328.1735246-.3422.2115574-.511176.092705-1.680792-1.1804427-3.630624-1.7718525-5.849968-1.7718525-2.391152 0-4.3542.7739672-5.8882 2.3190492-1.534 1.5455574-2.301 3.6116885-2.301 6.1998196 0 2.6955738.75756 4.8068689 2.27504 6.3348361 1.515592 1.5284426 3.415864 2.2914754 5.699872 2.2914754 1.284784 0 2.48036-.1801803 3.586256-.5395901 1.000168-.324705 2.014024-.8837869 3.043456-1.6791476.17464-.1350164.428104-.0941311.54044.0965082l2.346784 3.9867869c.097232.1649672.05428.3831803-.09912.4968033-1.313576.9750656-2.714472 1.7067213-4.197968 2.1944918-1.589696.5196229-3.345536.7820492-5.273184.7820492-2.604496 0-4.96072-.5319836-7.06584-1.5916722" fill="#FEFEFE"></path><path d="m90.2614096 36.5563541c.063248.182082-.031152.3888852-.206736.4649508-.916624.3936394-1.782744.6793607-2.597888.8552623-.91096.1972951-1.91868.2976066-3.024104.2976066-2.783384 0-4.92532-.809623-6.424392-2.425541-1.499072-1.6182951-2.247664-3.9715738-2.247664-7.0636394v-12.145295c0-.2001476-.160952-.3627377-.360136-.3627377h-4.256968c-.199184 0-.360608-.1625902-.360608-.3632132v-4.2872459c0-.2006229.161424-.3632131.360608-.3632131h4.256968c.199184 0 .360136-.1625901.360136-.3632131v-6.87680327c0-.20014754.161424-.3627377.360608-.3627377h5.221264c.198712 0 .360136.16259016.360136.3627377v6.87680327c0 .200623.161424.3632131.360608.3632131h6.8794c.199184 0 .360608.1625902.360608.3632131v4.2872459c0 .200623-.161424.3632132-.360608.3632132h-6.8794c-.199184 0-.360608.1625901-.360608.3627377v11.9841311c0 2.9465902 1.231448 4.4208361 3.692928 4.4208361.957688 0 1.943224-.2305738 2.958024-.6907705.193048-.0874754.420552.0009508.489936.2025246z" fill="#FEFEFE"></path><path d="m101.33958 17.3366279c-1.255048.9807705-2.081992 2.4008196-2.480832 4.2596721-.04956.2315246.133104.4578197.36816.4578197h13.743696c.21948 0 .399312-.200623.37524-.4212131-.204376-1.8436394-.888304-3.2670164-2.049424-4.2696558-1.2508-1.0782295-2.873536-1.6182951-4.871984-1.6182951-2.033376 0-3.728328.5319836-5.084856 1.5916722m17.264816 9.2994918h-19.46292c-.224672 0-.406864.2058524-.375712.4292951.252048 1.8127377 1.065776 3.2693934 2.440712 4.3694918 1.47972 1.1856721 3.327128 1.7785082 5.539392 1.7785082 1.391928 0 2.819256-.2424591 4.282456-.7283279 1.33576-.4421312 2.538888-1.1034262 3.607968-1.9815082.164728-.1350164.40356-.107918.527224.0656065l2.424192 3.4086886c.1062.1492787.092984.3598852-.036816.4896721-1.252216 1.2531803-2.837664 2.2092295-4.7554 2.8705246-2.034792.7007541-4.121976 1.052082-6.263912 1.052082-2.747984 0-5.164152-.567164-7.252752-1.6991148-2.086712-1.1324262-3.711336-2.7497705-4.870568-4.8520328-1.160648-2.1032131-1.73932-4.555377-1.73932-7.3593442 0-2.7312296.597552-5.149164 1.793128-7.2514263 1.19416-2.1027377 2.854184-3.7376721 4.977712-4.9067049 2.122112-1.1676065 4.523176-1.7518852 7.199416-1.7518852 3.711336 0 6.708536 1.1690327 8.9916 3.5051967 2.28448 2.3366393 3.42672 5.7139508 3.42672 10.1352623 0 .5376885-.027848 1.2270328-.083072 2.0689836-.012744.1958688-.175584.3570328-.370048.3570328" fill="#FEFEFE"></path><path d="m129.388086 36.798718c-2.105592-1.0596885-3.772696-2.6418524-5.004144-4.7441147-1.230976-2.1027377-1.846464-4.6090984-1.846464-7.5209836 0-2.8748033.623512-5.365 1.872896-7.4667869 1.249384-2.1036885 2.943864-3.7110492 5.084856-4.8254098 2.141936-1.1134099 4.55008-1.6720164 7.22632-1.6720164 1.74876 0 3.399344.2438852 4.951752.7278524 1.41836.4440328 2.694648 1.060164 3.829808 1.847918.178416.124082.222312.3755738.103368.5586066l-2.508208 3.8584262c-.121776.1868361-.367688.2281968-.550352.1007869-1.675128-1.1699836-3.617408-1.7556885-5.826368-1.7556885-2.391152 0-4.3542.7739672-5.8882 2.3190492-1.534 1.5455574-2.301 3.6116885-2.301 6.1998196 0 2.6955738.75756 4.8068689 2.27504 6.3348361 1.515592 1.5284426 3.415864 2.2914754 5.699872 2.2914754 1.284784 0 2.480832-.1801803 3.586256-.5395901.992144-.3218525 1.997976-.8742787 3.01844-1.6596558.188328-.1454754.460672-.1012623.581976.1045902l2.31752 3.9368688c.104312.1778033.058528.4121804-.106672.5348361-1.307912.9669836-2.701256 1.6938853-4.177672 2.1788033-1.589696.5196229-3.345536.7820492-5.273184.7820492-2.604496 0-4.96072-.5319836-7.06584-1.5916722" fill="#FEFEFE"></path><path d="m5.7845016.02966557c.207208 0 .375712.16924591.375712.37842623v7.76249181c0 2.87622949-.160952 5.37450819-.482384 7.49388529h.107144c.891608-1.4732951 2.14052-2.6870164 3.746736-3.6383115 1.606216-.9531967 3.406896-1.429082 5.406288-1.429082 3.567376 0 6.297424 1.0511312 8.189672 3.1533935 1.891304 2.1032131 2.837192 5.1135081 2.837192 9.0304098v14.6102951c0 .2087049-.168504.3784262-.375712.3784262h-5.24392c-.20768 0-.375712-.1697213-.375712-.3784262v-14.0702295c0-2.3366394-.544216-4.1512787-1.632176-5.4453443-1.088904-1.2940656-2.686152-1.9415738-4.791272-1.9415738-2.14052 0-3.907216.7373607-5.298672 2.2111312-1.391928 1.4742459-2.087184 3.3421311-2.087184 5.6060328v13.6399836c0 .2087049-.168504.3784262-.375712.3784262h-5.244392c-.20768 0-.375712-.1697213-.375712-.3784262v-36.983082c0-.20918032.168032-.37842623.375712-.37842623z" mask="url(#b)" transform="translate(150.568)" fill="#FEFEFE"></path><path d="m50.4202672 47.3241016c-.537136.509164-.852904 1.1937541-.947776 2.0528197h5.830616c-.010856-.890918-.270928-1.5835902-.782104-2.0765902-.511176-.4934754-1.208792-.7397377-2.093792-.7397377-.800512 0-1.469336.2543443-2.006944.7635082m5.704592 2.8329673h-6.652368c.063248.8913934.370992 1.6026065.924176 2.1326885.553184.5310328 1.2508.795836 2.093792.795836.484272 0 .97704-.0955573 1.477832-.2866721.499848-.1906393.924176-.4611475 1.271568-.8115246l.489936.6208853c-.41064.4136065-.90624.7345082-1.484912.9627049-.579616.2281967-1.169616.3422951-1.77.3422951-.758976 0-1.433464-.1725738-2.022992-.5177213-.59-.3441968-1.050672-.8276886-1.382488-1.447623-.331816-.6208852-.497488-1.3292459-.497488-2.125082 0-.785377.165672-1.4880327.497488-2.108918.331816-.6204098.790128-1.1058033 1.374936-1.4557049.584336-.3503771 1.250328-.5258033 1.998448-.5258033 1.127608 0 2.028184.3370656 2.7022 1.0107213.674016.6741312 1.011496 1.6049836 1.011496 2.7935082 0 .1164754-.010856.3237541-.031624.6204099" fill="#FEFEFE"></path><path d="m61.2836776 52.9347934c-.584336-.6213606-.876504-1.4775737-.876504-2.5705409v-4.4721804h.900576v4.4403279c0 .8590656.218536 1.5251148.655136 1.9971967.437072.472082 1.056808.7083607 1.856848.7083607.526752 0 .997808-.1245574 1.414112-.3741476.416304-.2491147.740568-.5890328.97232-1.0183278.23128-.4297705.347392-.9099345.347392-1.4404918v-4.3129181h.900576v7.8623279h-.852904c0-.7002787.009912-1.2256066.031152-1.5759836h-.047672c-.231752.5091639-.607936.9180164-1.129024 1.2256066-.522032.3075901-1.1092.4616229-1.761976.4616229-1.022352 0-1.825224-.3104426-2.410032-.9308525" fill="#FEFEFE"></path><path d="m73.4109152 45.8918344c0 .5624099-.015576 1.1143607-.047672 1.6549017h.032096c.200128-.4877705.529584-.9013771.987424-1.2412951.458312-.3394426.997808-.509164 1.619904-.509164.431408 0 .790128.0584755 1.074272.1754263l-.252992.8115246c-.262904-.0955574-.552712-.1435738-.86848-.1435738-.47436 0-.903408.1331148-1.288088.397918-.384208.2657541-.684872.6284918-.900576 1.0905902-.216176.4611475-.324264.9788688-.324264 1.5517377v4.0742623h-.900576v-7.8623279z" fill="#FEFEFE"></path><path d="m85.7207224 52.6636672c.473888-.2700328.850544-.6522623 1.129968-1.1457377.27848-.4934754.418192-1.0530328.418192-1.6786721 0-.6370492-.139712-1.2023115-.418192-1.6953115-.279424-.4934754-.65608-.8757049-1.129968-1.1462131-.47436-.2700328-.995448-.4055246-1.564208-.4055246-.579616 0-1.105896.1354918-1.580256.4055246-.47436.2705082-.851016.6498852-1.129968 1.1381311s-.418192 1.0454263-.418192 1.6710656c0 .6365738.13924 1.2018361.418192 1.6953115s.655608.8776065 1.129968 1.1533442c.47436.2762132.994976.414082 1.564208.414082.579144 0 1.105896-.1350164 1.580256-.406m-3.618824.7406885c-.610768-.339918-1.09268-.8172295-1.445264-1.4328852-.353528-.6151803-.530056-1.3263935-.530056-2.1322131 0-.8067705.17936-1.5203607.537608-2.1407705.358248-.6208853.845352-1.1010492 1.461312-1.4404918.616432-.3394426 1.298944-.5096394 2.046592-.5096394s1.424496.1673443 2.030544.5015574c.605576.3346885 1.084656.8091476 1.437712 1.4243279.352584.6156557.529584 1.3263934.529584 2.1326885 0 .8172295-.17936 1.5360492-.537136 2.156459-.35872.6208853-.842992 1.1010492-1.45376 1.4409672-.61124.3389673-1.29564.509164-2.054616.509164-.737264 0-1.411752-.1701967-2.02252-.509164" fill="#FEFEFE"></path><path d="m98.2586944 52.6478836c.468696-.2705082.834968-.6470328 1.098344-1.1300492.263376-.482541.395064-1.0420983.395064-1.6786721 0-.6370492-.131688-1.2023115-.395064-1.6953115-.263376-.4934754-.629648-.8752295-1.098344-1.1462131-.468696-.2700328-.99828-.4055246-1.58828-.4055246-.600384 0-1.13516.1354918-1.603856.4055246-.468696.2709836-.834496.6475082-1.098344 1.1305246-.262904.4830164-.395064 1.0425738-.395064 1.6786721 0 .6475082.13216 1.2151476.395064 1.7029181.263848.4887213.627288.8676229 1.091264 1.1381311.463032.2705082.994976.406 1.59536.406s1.13516-.1354918 1.603856-.406zm-4.685544-6.7560492c0 .6156558-.02124 1.2151476-.063248 1.798h.032096c.178888-.540541.563568-.9993114 1.153096-1.3763114.59-.3765246 1.280064-.5652623 2.070192-.5652623.74812 0 1.416944.1730491 2.006944.5172459.59.3451475 1.050672.8257868 1.3829596 1.4404918.331344.6151803.497016 1.3211639.497016 2.117 0 .7953606-.165672 1.5013442-.497016 2.117-.3322876.6156557-.7957916 1.0948688-1.3909836 1.4400164-.59472.3451475-1.266376.5177213-2.014496.5177213-.768888 0-1.446208-.1863607-2.030544-.5576558-.584808-.3708196-.971848-.8219836-1.161592-1.3530164h-.031152c.031152.4777869.046728 1.1462131.046728 2.0057541v3.5489345h-.900104v-11.6499181z" fill="#FEFEFE"></path><path d="m106.419574 47.3241016c-.537136.509164-.852904 1.1937541-.947776 2.0528197h5.830616c-.010856-.890918-.270928-1.5835902-.782104-2.0765902-.511176-.4934754-1.208792-.7397377-2.093792-.7397377-.800512 0-1.469336.2543443-2.006944.7635082m5.704592 2.8329673h-6.652368c.063248.8913934.370992 1.6026065.924176 2.1326885.553184.5310328 1.251272.795836 2.093792.795836.484744 0 .97704-.0955573 1.477832-.2866721.499848-.1906393.924176-.4611475 1.271568-.8115246l.489936.6208853c-.41064.4136065-.90624.7345082-1.484912.9627049-.579616.2281967-1.169616.3422951-1.77.3422951-.758504 0-1.432992-.1725738-2.022992-.5177213-.59-.3441968-1.050672-.8276886-1.382488-1.447623-.331344-.6208852-.497488-1.3292459-.497488-2.125082 0-.785377.166144-1.4880327.497488-2.108918.331816-.6204098.790128-1.1058033 1.374936-1.4557049.584336-.3503771 1.2508-.5258033 1.998448-.5258033 1.127608 0 2.028184.3370656 2.7022 1.0107213.674016.6741312 1.011496 1.6049836 1.011496 2.7935082 0 .1164754-.010856.3237541-.031624.6204099" fill="#FEFEFE"></path></g><path d="m-9.1390481 38.1530191c.36268354.6724174 11.46253164 17.9604 32.680481 17.7228 25.3782279-.2840869 11.286-28.1814261 11.286-28.1814261l-21.1174177-19.46817387z" fill="#5EB134" mask="url(#c)" transform="translate(0 3)"></path><path d="m-5.11292405 24.8772835c.36316456.6724174 15.78539245 24.2793391 37.00382275 24.0412695 25.3777469-.2840869 4.5321013-21.4863652 4.5321013-21.4863652l-21.1178987-19.46817389z" fill="#2A468C" mask="url(#d)" transform="translate(0 3)"></path><path d="m.02857143 18.2132813c4.20428571 7.456875 13.82619047 21.6 27.33714287 26.3667187.0004762.0004688.0019047.0004688.0023809.0009375 1.5552381-2.6746875 2.4442858-5.773125 2.4442858-9.0759375 0-2.3353125-.4490477-4.5660937-1.2590477-6.6196875-3.5190476-9.560625-13.4561904-18.1490625-17.33-28.65-2.3933333 6.49734375-7.11142854 12.2620312-11.19476187 17.9779688" fill="url(&quot;#a&quot;)" mask="url(#e)" transform="translate(8 3)"></path></g></svg>