<svg xmlns="http://www.w3.org/2000/svg" xmlns:xlink="http://www.w3.org/1999/xlink" version="1.1" id="Ebene_1" x="0px" y="0px" viewBox="0 0 290.77 58.9" style="enable-background:new 0 0 290.77 58.9;" width="290.77"  height="58.9" >
<style type="text/css">
	.st0{fill-rule:evenodd;clip-rule:evenodd;fill:#01A0C6;}
	.st1{fill-rule:evenodd;clip-rule:evenodd;fill:#FFFFFF;}
</style>
<g>
	<path d="M0,9.88h12v2.69H3.13v7.14h7.17v2.69H3.13v8.19h9.31v2.72H0V9.88z"/>
	<path d="M16.28,16.27h2.28l0.44,2.11c1.5-1.5,3.2-2.55,5.2-2.55c2.45,0,4.11,1.26,4.11,4.15v13.33h-2.92V20.9&#10;  c0-1.94-0.54-2.48-2.07-2.48c-1.36,0-2.89,0.95-4.11,2.04v12.85h-2.92V16.27z"/>
	<path d="M32.28,24.91c0-6.39,1.87-9.08,5.85-9.08c1.87,0,3.43,1.02,4.52,2.07V8.69h2.92v24.62H43.3l-0.48-1.77&#10;  c-1.29,1.43-2.92,2.21-4.72,2.21C34.83,33.75,32.28,31.91,32.28,24.91z M42.65,29.4v-9.21c-0.99-0.95-2.35-1.84-3.77-1.84&#10;  c-2.41,0-3.47,0.88-3.47,6.36c0,5.47,0.88,6.53,3.2,6.53C40.27,31.23,41.43,30.55,42.65,29.4z"/>
	<path d="M50.46,16.27h2.28l0.48,2.41c1.26-1.56,2.82-2.72,4.79-2.72c0.2,0,0.47,0.03,0.61,0.1l-0.34,3.13&#10;  c-0.31-0.1-0.68-0.14-1.02-0.14c-1.56,0-2.62,0.58-3.88,1.73v12.51h-2.92V16.27z"/>
	<path d="M60.34,24.77c0-6.46,2.65-8.94,6.66-8.94c4.04,0,6.36,2.31,6.36,8.47v1.16h-9.89c0.07,4.66,1.09,5.81,3.91,5.81&#10;  c1.84,0,2.89-0.71,4.01-1.6l1.6,2.11c-1.67,1.36-3.2,1.97-5.68,1.97C62.86,33.75,60.34,31.16,60.34,24.77z M63.51,23.24h6.77&#10;  c0-3.91-0.88-5.1-3.33-5.1C64.97,18.14,63.74,19.16,63.51,23.24z"/>
	<path d="M75.64,31.91l1.22-2.18c1.43,0.99,2.89,1.56,4.56,1.56c2.31,0,3.03-0.92,3.03-2.52c0-1.9-0.88-2.28-3.6-3.03&#10;  c-2.38-0.65-4.35-1.9-4.35-5.27c0-2.48,1.6-4.66,5.34-4.66c2.04,0,3.47,0.41,4.72,1.12l-1.02,2.31c-1.43-0.71-2.31-0.95-3.6-0.95&#10;  c-1.84,0-2.69,0.65-2.69,2.11c0,1.6,0.71,2.01,3.06,2.65c2.62,0.71,5,1.73,5,5.58c0,3.53-2.01,5.1-6.02,5.1&#10;  C79.01,33.75,76.83,32.86,75.64,31.91z"/>
	<path d="M89.55,31.91l1.22-2.18c1.43,0.99,2.89,1.56,4.55,1.56c2.31,0,3.03-0.92,3.03-2.52c0-1.9-0.88-2.28-3.61-3.03&#10;  c-2.38-0.65-4.35-1.9-4.35-5.27c0-2.48,1.6-4.66,5.34-4.66c2.04,0,3.47,0.41,4.73,1.12l-1.02,2.31c-1.43-0.71-2.31-0.95-3.61-0.95&#10;  c-1.84,0-2.69,0.65-2.69,2.11c0,1.6,0.71,2.01,3.06,2.65c2.62,0.71,5,1.73,5,5.58c0,3.53-2.01,5.1-6.02,5.1&#10;  C92.91,33.75,90.74,32.86,89.55,31.91z"/>
	<path d="M111.85,24.64h-5.47v-2.55h5.47v-6.02h2.75v6.02h5.44v2.55h-5.44v6.02h-2.75V24.64z"/>
	<path d="M126.74,9.88h3.13v9.59h8.43V9.88h3.13v23.43h-3.13V22.22h-8.43v11.08h-3.13V9.88z"/>
	<path d="M145.43,28.44c0-3.88,2.28-5.68,7.85-5.68h1.39v-1.33c0-1.9-0.24-3.06-2.45-3.06c-1.77,0-3.47,0.75-4.96,1.56l-1.12-2.24&#10;  c1.73-1.02,3.67-1.87,6.39-1.87c3.33,0,5.07,1.5,5.07,5.13v12.34h-2.28l-0.48-1.7c-0.98,1.09-2.41,2.14-4.28,2.14&#10;  C147.3,33.75,145.43,31.95,145.43,28.44z M154.68,29.4v-4.52h-1.02c-4.28,0-5.1,1.09-5.1,3.57c0,2.24,0.71,2.99,2.38,2.99&#10;  S153.87,30.31,154.68,29.4z"/>
	<path d="M162.08,29.4V16.27H165v12.21c0,2.01,0.68,2.69,2.21,2.69c1.36,0,2.82-0.92,4.08-2.04V16.27h2.92v17.03h-2.28l-0.44-2.11&#10;  c-1.43,1.46-3.06,2.55-5.07,2.55C163.98,33.75,162.08,32.35,162.08,29.4z"/>
	<path d="M177.65,31.91l1.22-2.18c1.43,0.99,2.89,1.56,4.56,1.56c2.31,0,3.03-0.92,3.03-2.52c0-1.9-0.88-2.28-3.6-3.03&#10;  c-2.38-0.65-4.35-1.9-4.35-5.27c0-2.48,1.6-4.66,5.34-4.66c2.04,0,3.47,0.41,4.72,1.12l-1.02,2.31c-1.43-0.71-2.31-0.95-3.6-0.95&#10;  c-1.84,0-2.69,0.65-2.69,2.11c0,1.6,0.71,2.01,3.06,2.65c2.62,0.71,5,1.73,5,5.58c0,3.53-2.01,5.1-6.02,5.1&#10;  C181.01,33.75,178.84,32.86,177.65,31.91z"/>
	<path d="M192.13,24.77c0-6.46,2.65-8.94,6.66-8.94c4.05,0,6.36,2.31,6.36,8.47v1.16h-9.89c0.07,4.66,1.09,5.81,3.91,5.81&#10;  c1.84,0,2.89-0.71,4.01-1.6l1.6,2.11c-1.67,1.36-3.2,1.97-5.68,1.97C194.65,33.75,192.13,31.16,192.13,24.77z M195.29,23.24h6.77&#10;  c0-3.91-0.88-5.1-3.33-5.1C196.76,18.14,195.53,19.16,195.29,23.24z"/>
	<path d="M208.88,16.27h2.28l0.47,2.41c1.26-1.56,2.82-2.72,4.79-2.72c0.2,0,0.48,0.03,0.61,0.1l-0.34,3.13&#10;  c-0.31-0.1-0.68-0.14-1.02-0.14c-1.56,0-2.62,0.58-3.88,1.73v12.51h-2.92V16.27z"/>
</g>
<g>
	<path d="M50.57,46.42h2.41c1.93,0,2.87,0.99,2.87,2.77c0,1.88-0.94,2.88-2.72,2.88h-1.68v3.96h-0.88V46.42z M53.03,51.34&#10;  c1.26,0,1.88-0.6,1.88-2.1c0-1.47-0.57-2.06-1.99-2.06h-1.47v4.16H53.03z"/>
	<path d="M59.79,55.47c0.77,0,1.23-0.27,1.67-0.6l0.46,0.59c-0.57,0.46-1.21,0.73-2.13,0.73c-1.6,0-2.71-0.9-2.71-3.47&#10;  c0-2.55,1.08-3.5,2.56-3.5c1.55,0,2.39,0.98,2.39,3.26v0.35h-4.07C57.99,54.85,58.54,55.47,59.79,55.47z M61.17,52.16&#10;  c0-1.71-0.5-2.27-1.54-2.27c-0.94,0-1.55,0.52-1.65,2.27H61.17z"/>
	<path d="M63.52,52.71c0-2.49,1.09-3.5,2.65-3.5c1.54,0,2.69,0.99,2.69,3.49c0,2.48-1.09,3.49-2.66,3.49&#10;  C64.64,56.18,63.52,55.19,63.52,52.71z M67.97,52.72c0-2.12-0.63-2.84-1.79-2.84c-1.16,0-1.78,0.69-1.78,2.8s0.63,2.83,1.79,2.83&#10;  C67.36,55.51,67.97,54.82,67.97,52.72z"/>
	<path d="M70.79,49.35h0.59l0.2,0.9c0.5-0.56,1.21-1.04,2-1.04c1.33,0,2.27,0.94,2.27,3.49c0,2.41-0.81,3.49-2.32,3.49&#10;  c-0.84,0-1.46-0.43-1.89-0.88v3.6h-0.84V49.35z M74.96,52.77c0-2.24-0.5-2.83-1.51-2.83c-0.77,0-1.33,0.48-1.82,0.92v3.77&#10;  c0.49,0.49,1.06,0.83,1.74,0.83C74.41,55.45,74.96,54.84,74.96,52.77z"/>
	<path d="M77.83,54.84v-8.81h0.84v8.89c0,0.42,0.17,0.55,0.47,0.55c0.18,0,0.29-0.04,0.29-0.04l0.14,0.6&#10;  c-0.18,0.07-0.42,0.13-0.66,0.13C78.26,56.15,77.83,55.82,77.83,54.84z"/>
	<path d="M83.5,55.47c0.77,0,1.23-0.27,1.67-0.6l0.46,0.59c-0.57,0.46-1.2,0.73-2.13,0.73c-1.6,0-2.71-0.9-2.71-3.47&#10;  c0-2.55,1.08-3.5,2.56-3.5c1.55,0,2.39,0.98,2.39,3.26v0.35h-4.07C81.69,54.85,82.24,55.47,83.5,55.47z M84.87,52.16&#10;  c0-1.71-0.5-2.27-1.54-2.27c-0.94,0-1.55,0.52-1.65,2.27H84.87z"/>
	<path d="M90.04,50.03v-0.69h0.8V47.7c0-1.26,0.71-1.76,1.58-1.76c0.53,0,0.92,0.1,1.32,0.35l-0.32,0.62&#10;  c-0.29-0.15-0.56-0.25-0.91-0.25c-0.53,0-0.83,0.32-0.83,1.06v1.64h1.36v0.69h-1.36v6.01h-0.84v-6.01H90.04z"/>
	<path d="M94.12,52.71c0-2.49,1.09-3.5,2.65-3.5c1.54,0,2.69,0.99,2.69,3.49c0,2.48-1.09,3.49-2.66,3.49&#10;  C95.24,56.18,94.12,55.19,94.12,52.71z M98.57,52.72c0-2.12-0.63-2.84-1.79-2.84S95,50.57,95,52.68s0.63,2.83,1.79,2.83&#10;  S98.57,54.82,98.57,52.72z"/>
	<path d="M101.39,49.35h0.59l0.2,1.13c0.56-0.69,1.23-1.23,2.03-1.23c0.07,0,0.2,0.01,0.21,0.03l-0.08,0.9&#10;  c-0.05-0.03-0.17-0.04-0.29-0.04c-0.69,0-1.21,0.35-1.81,0.99v4.91h-0.84V49.35z"/>
	<path d="M109.16,46.42h2.41c1.93,0,2.87,0.99,2.87,2.77c0,1.88-0.94,2.88-2.71,2.88h-1.68v3.96h-0.88V46.42z M111.62,51.34&#10;  c1.26,0,1.88-0.6,1.88-2.1c0-1.47-0.57-2.06-1.99-2.06h-1.47v4.16H111.62z"/>
	<path d="M116.31,49.35h0.59l0.2,1.13c0.56-0.69,1.23-1.23,2.03-1.23c0.07,0,0.2,0.01,0.21,0.03l-0.08,0.9&#10;  c-0.05-0.03-0.17-0.04-0.29-0.04c-0.69,0-1.21,0.35-1.81,0.99v4.91h-0.84V49.35z"/>
	<path d="M120.44,52.71c0-2.49,1.09-3.5,2.64-3.5c1.54,0,2.69,0.99,2.69,3.49c0,2.48-1.09,3.49-2.66,3.49&#10;  C121.56,56.18,120.44,55.19,120.44,52.71z M124.89,52.72c0-2.12-0.63-2.84-1.79-2.84c-1.16,0-1.78,0.69-1.78,2.8&#10;  s0.63,2.83,1.79,2.83S124.89,54.82,124.89,52.72z"/>
	<path d="M127.27,52.71c0-2.53,1.09-3.5,2.62-3.5c0.83,0,1.37,0.28,1.88,0.79l-0.5,0.57c-0.39-0.42-0.74-0.64-1.4-0.64&#10;  c-1.11,0-1.71,0.62-1.71,2.76c0,2.14,0.59,2.79,1.78,2.79c0.71,0,1.09-0.34,1.41-0.67l0.55,0.52c-0.45,0.5-1.06,0.87-2,0.87&#10;  C128.35,56.18,127.27,55.21,127.27,52.71z"/>
	<path d="M135.79,55.47c0.77,0,1.23-0.27,1.67-0.6l0.46,0.59c-0.57,0.46-1.2,0.73-2.13,0.73c-1.6,0-2.72-0.9-2.72-3.47&#10;  c0-2.55,1.08-3.5,2.56-3.5c1.55,0,2.39,0.98,2.39,3.26v0.35h-4.07C133.98,54.85,134.53,55.47,135.79,55.47z M137.16,52.16&#10;  c0-1.71-0.5-2.27-1.54-2.27c-0.94,0-1.55,0.52-1.65,2.27H137.16z"/>
	<path d="M139.24,55.45l0.36-0.6c0.52,0.38,1.08,0.63,1.81,0.63c0.99,0,1.4-0.45,1.4-1.18c0-0.81-0.37-1.05-1.51-1.41&#10;  c-0.99-0.31-1.74-0.77-1.74-1.97c0-0.94,0.64-1.71,1.97-1.71c0.81,0,1.36,0.2,1.82,0.46l-0.31,0.66c-0.49-0.27-0.88-0.41-1.5-0.41&#10;  c-0.76,0-1.19,0.31-1.19,0.98c0,0.73,0.34,0.92,1.28,1.23c1.12,0.36,1.99,0.74,1.99,2.13c0,1.3-0.83,1.92-2.23,1.92&#10;  C140.5,56.18,139.73,55.85,139.24,55.45z"/>
	<path d="M144.76,55.45l0.37-0.6c0.52,0.38,1.08,0.63,1.8,0.63c0.99,0,1.4-0.45,1.4-1.18c0-0.81-0.36-1.05-1.51-1.41&#10;  c-0.99-0.31-1.74-0.77-1.74-1.97c0-0.94,0.64-1.71,1.97-1.71c0.81,0,1.36,0.2,1.82,0.46l-0.31,0.66c-0.49-0.27-0.88-0.41-1.5-0.41&#10;  c-0.76,0-1.19,0.31-1.19,0.98c0,0.73,0.34,0.92,1.27,1.23c1.12,0.36,1.99,0.74,1.99,2.13c0,1.3-0.83,1.92-2.23,1.92&#10;  C146.02,56.18,145.25,55.85,144.76,55.45z"/>
	<path d="M154.2,56.04h-0.89l3.01-9.62h0.96l2.94,9.62h-0.95l-0.91-3.09h-3.21L154.2,56.04z M157.32,49.46&#10;  c-0.31-1.05-0.43-1.65-0.52-2.18h-0.03c-0.1,0.55-0.24,1.16-0.54,2.18l-0.84,2.73h2.74L157.32,49.46z"/>
	<path d="M161.63,54.42v-5.07h0.82v4.84c0,0.91,0.37,1.25,1.04,1.25c0.67,0,1.32-0.39,1.93-0.9v-5.19h0.84v6.69h-0.6l-0.2-0.89&#10;  c-0.63,0.6-1.32,1.04-2.14,1.04C162.36,56.18,161.63,55.61,161.63,54.42z"/>
	<path d="M167.96,50.03v-0.69h0.81v-1.76l0.83-0.2v1.96h1.4v0.69h-1.4v4.84c0,0.41,0.18,0.62,0.56,0.62c0.35,0,0.6-0.11,0.78-0.2&#10;  l0.21,0.62c-0.28,0.14-0.59,0.27-1.04,0.27c-0.76,0-1.34-0.35-1.34-1.26v-4.89H167.96z"/>
	<path d="M172.41,52.71c0-2.49,1.09-3.5,2.65-3.5c1.54,0,2.69,0.99,2.69,3.49c0,2.48-1.09,3.49-2.66,3.49&#10;  C173.53,56.18,172.41,55.19,172.41,52.71z M176.86,52.72c0-2.12-0.63-2.84-1.79-2.84c-1.16,0-1.78,0.69-1.78,2.8&#10;  s0.63,2.83,1.79,2.83C176.25,55.51,176.86,54.82,176.86,52.72z"/>
	<path d="M179.68,49.35h0.59l0.2,0.92c0.63-0.6,1.26-1.06,2.06-1.06c0.74,0,1.25,0.39,1.48,1.04c0.69-0.62,1.33-1.04,2.09-1.04&#10;  c0.92,0,1.57,0.55,1.57,1.71v5.12h-0.84v-4.9c0-0.88-0.28-1.19-0.91-1.19c-0.63,0-1.23,0.37-1.82,0.88v5.21h-0.84v-4.9&#10;  c0-0.88-0.28-1.19-0.91-1.19c-0.64,0-1.22,0.41-1.82,0.92v5.17h-0.84V49.35z"/>
	<path d="M193.3,51.25c0-0.84-0.21-1.32-1.11-1.32c-0.74,0-1.39,0.28-2,0.67l-0.34-0.62c0.66-0.43,1.37-0.79,2.41-0.79&#10;  c1.23,0,1.88,0.6,1.88,1.93v4.9h-0.59l-0.21-0.81c-0.37,0.43-0.99,0.95-1.86,0.95c-1.23,0-1.96-0.71-1.96-2.02&#10;  c0-1.46,0.87-2.16,2.93-2.16h0.85V51.25z M193.3,52.65h-0.77c-1.68,0-2.13,0.45-2.13,1.53c0,0.92,0.38,1.3,1.18,1.3&#10;  c0.8,0,1.37-0.49,1.72-0.92V52.65z"/>
	<path d="M195.78,50.03v-0.69h0.81v-1.76l0.83-0.2v1.96h1.4v0.69h-1.4v4.84c0,0.41,0.18,0.62,0.56,0.62c0.35,0,0.6-0.11,0.79-0.2&#10;  l0.21,0.62c-0.28,0.14-0.59,0.27-1.04,0.27c-0.76,0-1.34-0.35-1.34-1.26v-4.89H195.78z"/>
	<path d="M201.07,50.01l-0.95-0.13v-0.53h1.79v6.69h-0.84V50.01z M200.77,47.17c0-0.38,0.27-0.66,0.63-0.66&#10;  c0.38,0,0.64,0.28,0.64,0.66c0,0.36-0.27,0.64-0.64,0.64C201.04,47.81,200.77,47.53,200.77,47.17z"/>
	<path d="M203.88,52.71c0-2.49,1.09-3.5,2.65-3.5c1.54,0,2.69,0.99,2.69,3.49c0,2.48-1.09,3.49-2.66,3.49&#10;  C205,56.18,203.88,55.19,203.88,52.71z M208.33,52.72c0-2.12-0.63-2.84-1.79-2.84c-1.16,0-1.78,0.69-1.78,2.8s0.63,2.83,1.79,2.83&#10;  C207.72,55.51,208.33,54.82,208.33,52.72z"/>
	<path d="M211.15,49.35h0.59l0.2,0.97c0.66-0.64,1.36-1.11,2.18-1.11c0.95,0,1.65,0.56,1.65,1.72v5.11h-0.84v-4.88&#10;  c0-0.9-0.32-1.21-1.01-1.21c-0.67,0-1.33,0.44-1.93,0.97v5.12h-0.84V49.35z"/>
</g>
<g>
	<path class="st0" d="M287.82,0.13C287.49,0.04,287.14,0,286.79,0h-47.93c-1.8,0-3.38,1.21-3.85,2.95l-6.79,25.34&#10;  c-0.57,2.12,0.69,4.31,2.81,4.87c0.34,0.09,0.68,0.14,1.03,0.14H280c1.8,0,3.38-1.21,3.84-2.95l6.79-25.34&#10;  C291.21,2.89,289.95,0.7,287.82,0.13z"/>
	<path class="st1" d="M258.24,30.12h-19.37c-0.44,0-0.8-0.36-0.8-0.8V3.98c0-0.44,0.36-0.8,0.8-0.8h19.37l-1.96,7.3h-9.59V13h6.58&#10;  l-1.96,7.3h-4.62v2.52h11.54V30.12z"/>
	<path class="st1" d="M280.8,29.32c0,0.44-0.36,0.8-0.79,0.8h-7.83V20.3h-2.65v9.82h-8.62V20.3h-7.24l1.96-7.3h5.29V3.18h8.62V13&#10;  h2.65V3.18H280c0.44,0,0.79,0.36,0.79,0.8V29.32z"/>
</g>
</svg>