<svg xmlns:xlink="http://www.w3.org/1999/xlink" xmlns="http://www.w3.org/2000/svg" isHomepage="true" class="Banner__StyledScrollIcon-sc-1snma7x-9 cVowpL" width="83" height="83" viewBox="0 0 83 83" version="1.1"><title>Group 46</title><defs><polygon id="path-1" points="0.472254977 0.253361017 9.78859603 0.253361017 9.78859603 6.90531864 0.472254977 6.90531864"></polygon><path d="M5.37170794,0 C5.1658191,0 4.99863961,0.163571083 4.99863961,0.365255817 L4.99863961,0.365255817 L4.99863961,14.0665838 C4.99863961,14.2687979 4.83146012,14.4318396 4.62501027,14.4318396 L4.62501027,14.4318396 L0.623361526,14.4318396 C0.362494195,14.4318396 0.173996511,14.5535916 0.0567464639,14.7955074 L0.0567464639,14.7955074 C-0.0476004683,15.0379525 -0.00776911244,15.2613409 0.173996511,15.465143 L0.173996511,15.465143 L7.08894428,22.8094317 C7.21909745,22.9364772 7.37449583,23 7.55738347,23 L7.55738347,23 C7.72680698,23 7.87603431,22.9364772 8.00562647,22.8089024 L8.00562647,22.8089024 L14.8425945,15.4646137 C15.0120181,15.2608115 15.0445564,15.0379525 14.9407704,14.7955074 L14.9407704,14.7955074 C14.8364235,14.5535916 14.6473648,14.4318396 14.3735944,14.4318396 L14.3735944,14.4318396 L10.3719456,14.4318396 C10.1654958,14.4318396 9.99831627,14.2682685 9.99831627,14.0665838 L9.99831627,14.0665838 L9.99831627,0.365255817 C9.99831627,0.163571083 9.83113678,0 9.62524794,0 L9.62524794,0 L5.37170794,0 Z" id="path-3"></path><polygon id="path-1" points="0.472254977 0.253361017 9.78859603 0.253361017 9.78859603 6.90531864 0.472254977 6.90531864"></polygon><path d="M5.37170794,0 C5.1658191,0 4.99863961,0.163571083 4.99863961,0.365255817 L4.99863961,0.365255817 L4.99863961,14.0665838 C4.99863961,14.2687979 4.83146012,14.4318396 4.62501027,14.4318396 L4.62501027,14.4318396 L0.623361526,14.4318396 C0.362494195,14.4318396 0.173996511,14.5535916 0.0567464639,14.7955074 L0.0567464639,14.7955074 C-0.0476004683,15.0379525 -0.00776911244,15.2613409 0.173996511,15.465143 L0.173996511,15.465143 L7.08894428,22.8094317 C7.21909745,22.9364772 7.37449583,23 7.55738347,23 L7.55738347,23 C7.72680698,23 7.87603431,22.9364772 8.00562647,22.8089024 L8.00562647,22.8089024 L14.8425945,15.4646137 C15.0120181,15.2608115 15.0445564,15.0379525 14.9407704,14.7955074 L14.9407704,14.7955074 C14.8364235,14.5535916 14.6473648,14.4318396 14.3735944,14.4318396 L14.3735944,14.4318396 L10.3719456,14.4318396 C10.1654958,14.4318396 9.99831627,14.2682685 9.99831627,14.0665838 L9.99831627,14.0665838 L9.99831627,0.365255817 C9.99831627,0.163571083 9.83113678,0 9.62524794,0 L9.62524794,0 L5.37170794,0 Z" id="path-3"></path></defs><g id="Design" stroke="none" stroke-width="1" fill="none" fill-rule="evenodd"><g id="PolyClay" transform="translate(-910.000000, -518.000000)" fill="none"><g id="Group-46" transform="translate(910.000000, 518.000000)" fill="none"><g id="Group-42" fill="none"><path d="M70.7181282,29.2136788 C70.5895804,28.8943398 70.4856183,28.5553059 70.4062418,28.1965771 C70.3268653,27.8364415 70.2776941,27.4910771 70.2601329,27.1604839 C70.2411668,26.8298907 70.2559182,26.5393907 70.3036846,26.2896873 L71.5055711,25.9640178 C71.4374337,26.3867551 71.4290044,26.8495856 71.4795805,27.3525093 C71.5308591,27.8561364 71.6376311,28.3091195 71.8013012,28.7128653 C72.0155474,29.244628 72.291609,29.6188314 72.6308908,29.8361788 C72.9701726,30.0535263 73.3305278,30.0851788 73.7126589,29.9311364 C73.9318223,29.8411025 74.0983022,29.713789 74.2135034,29.5484924 C74.3272998,29.3824924 74.3982469,29.1468568 74.4277497,28.842289 C74.4572525,28.5377212 74.4516329,28.1304585 74.4094861,27.6197975 C74.3532903,26.9494669 74.3617197,26.3944924 74.4340717,25.9527636 C74.5064237,25.5103314 74.6567474,25.1537127 74.8843401,24.8800941 C75.1112304,24.6064754 75.426629,24.3884246 75.8298335,24.2238314 C76.2969606,24.0360263 76.747229,23.986789 77.1792338,24.0803398 C77.611941,24.1724839 78.0067161,24.3905347 78.3628566,24.7330856 C78.7196996,25.0742297 79.0105126,25.5258059 79.2367004,26.0850008 C79.4031803,26.4964839 79.5176792,26.9339924 79.5823043,27.3989331 C79.6455245,27.8631703 79.6490367,28.2887212 79.5907336,28.6748822 L78.410623,28.9309161 C78.4710334,28.551789 78.4780579,28.1508568 78.430994,27.7288229 C78.38393,27.306789 78.2883973,26.9185178 78.1458006,26.5640093 C77.9512228,26.0821873 77.7018542,25.7459669 77.3990996,25.5560517 C77.0956426,25.3654331 76.7668975,25.3415178 76.4128643,25.4850093 C76.2070474,25.5673059 76.0489969,25.6854754 75.9380103,25.8388144 C75.8263213,25.9900432 75.7588864,26.2038737 75.7335983,26.4774924 C75.7083102,26.7518144 75.7097151,27.1182805 75.7385154,27.5761873 C75.7940087,28.3041958 75.7841745,28.9070008 75.7097151,29.3867127 C75.6359582,29.8664246 75.4877419,30.253289 75.2636614,30.5458992 C75.0402833,30.8378059 74.7305043,31.0642975 74.3336218,31.2239669 C73.5841111,31.5278314 72.8872839,31.5011025 72.2445451,31.1423737 C71.6018063,30.7850517 71.0932348,30.14145 70.7181282,29.2136788" id="Fill-1" fill="#21478D"></path><path d="M72.984924,37.5864093 C72.8507567,36.6867737 72.9181916,35.8673246 73.1865262,35.1280619 C73.4541585,34.3880958 73.888973,33.7789602 74.4888626,33.2985449 C75.0887521,32.8188331 75.8192968,32.5149686 76.6797941,32.3862483 C77.3365819,32.2891805 77.9554375,32.3123924 78.5370634,32.4572907 C79.1179869,32.602189 79.6385,32.851189 80.10071,33.2042907 C80.5622175,33.556689 80.9443486,34.000528 81.248508,34.5393246 C81.5526675,35.0781212 81.7549722,35.6865534 81.8561245,36.3674347 C81.9249643,36.8281551 81.9326912,37.3099771 81.8800077,37.8121975 C81.8273242,38.3151212 81.7177425,38.75685 81.5505602,39.1373839 L80.2917755,39.0811127 C80.4505285,38.5943669 80.5537882,38.1463076 80.6008521,37.7369347 C80.6486185,37.3275619 80.6422965,36.9238161 80.5825885,36.5221805 C80.4891631,35.8947568 80.2756192,35.3644008 79.9405521,34.9318161 C79.6061874,34.4978246 79.1819096,34.1869263 78.6670161,33.997011 C78.152825,33.8070958 77.578926,33.7599686 76.9446166,33.8535195 C76.3032826,33.9498839 75.7652084,34.163011 75.3325012,34.4943076 C74.8990915,34.8256042 74.5900149,35.2483415 74.404569,35.7632229 C74.2177181,36.2781042 74.1727615,36.8562907 74.2682943,37.499189 C74.3280023,37.8994178 74.4495256,38.3179347 74.6349715,38.7547398 C74.8190126,39.1901381 75.044498,39.6016212 75.3100229,39.9863754 L74.0856581,40.3197822 C73.8046794,39.9364347 73.5700622,39.5094771 73.3804015,39.0396127 C73.1907409,38.5690449 73.0586809,38.0851127 72.984924,37.5864093" id="Fill-3" fill="#21478D"></path><g id="Group-7" transform="translate(72.352019, 41.500000)" fill="none"><mask id="mask-2" fill="#FFFFFF"><use href="#path-1" fill="#FFFFFF"></use></mask><g id="Clip-6" fill="none"></g><path d="M8.42535754,3.49809831 L8.53704658,2.36845424 L5.34653326,2.0526322 L5.24116624,3.11334407 C5.11332092,4.41461525 5.58115049,5.11800508 6.64465493,5.22281017 C7.70815937,5.32761525 8.30172691,4.75294576 8.42535754,3.49809831 L8.42535754,3.49809831 Z M1.12834028,0.253361017 L9.78880676,1.10938644 L9.52257943,3.8026661 C9.46076411,4.43360678 9.29428422,4.97029322 9.02454465,5.41202203 C8.75480509,5.85375085 8.40568903,6.18153051 7.97789894,6.39747119 C7.55010884,6.61200508 7.05909853,6.69219153 6.50486802,6.63732712 C5.95836441,6.58386949 5.49685687,6.39536102 5.12245273,6.07461525 C4.74734615,5.7531661 4.47128456,5.36067458 4.29497041,4.89784407 L0.472254977,6.90531864 L0.632412846,5.28470847 L4.08002169,3.5747678 C4.08072414,3.49036102 4.08564127,3.40243729 4.09477308,3.31099661 L4.22964286,1.9422 L0.993470496,1.62215763 L1.12834028,0.253361017 Z" id="Fill-5" fill="#21478D" mask="url(#mask-2)"></path></g><path d="M72.3319295,53.2326831 C72.1233028,53.7904712 72.0685119,54.3327847 72.1689618,54.8610305 C72.2680068,55.3885729 72.5033265,55.8626576 72.8714086,56.2825814 C73.2401932,56.7025051 73.7171545,57.0225475 74.3036976,57.2420051 C74.8965627,57.4656831 75.4683544,57.5388356 76.0183702,57.4642763 C76.5676836,57.3890136 77.0537768,57.1850305 77.4752449,56.8530305 C77.8967129,56.5231407 78.212814,56.0778949 78.4214407,55.5194034 C78.62796,54.9686492 78.681346,54.4291492 78.5808961,53.9016068 C78.4811487,53.3740644 78.2479363,52.9006831 77.8833664,52.4828695 C77.5187966,52.0643525 77.0397279,51.7436068 76.4461603,51.5206322 C75.8596172,51.2997678 75.2899329,51.2266153 74.7371073,51.3011746 C74.1835792,51.3743271 73.6953787,51.5769034 73.2739106,51.9089034 C72.8524425,52.2409034 72.5384488,52.6819288 72.3319295,53.2326831 M71.1314479,52.7818102 C71.3590407,52.173378 71.6765466,51.6521661 72.0832633,51.2174712 C72.4920873,50.7827763 72.9578096,50.4451492 73.4839422,50.2052932 C74.0093724,49.9661407 74.5706274,49.8367169 75.1648974,49.8149119 C75.7598698,49.7931068 76.3611643,49.8965051 76.9687807,50.1251068 C77.5693727,50.3501915 78.0863736,50.6674203 78.5204857,51.0753864 C78.9545978,51.4833525 79.2924747,51.9525136 79.533414,52.4842763 C79.7750557,53.0146322 79.9064132,53.5787508 79.9274866,54.174522 C79.9492625,54.7709966 79.8474077,55.3695814 79.6219223,55.9702763 C79.3950319,56.5787085 79.0768235,57.1020305 78.6672971,57.5409458 C78.2591755,57.9784542 77.7913459,58.3174881 77.2659157,58.5559373 C76.7397831,58.7957932 76.179933,58.9273271 75.5842581,58.9484288 C74.9892857,58.9695305 74.3879912,58.8661322 73.7810772,58.6382339 C73.1804852,58.4131492 72.6641868,58.0945136 72.2307771,57.6823271 C71.7980699,57.2708441 71.4608954,56.7995729 71.2199562,56.2678102 C70.9783145,55.7374542 70.8469569,55.1733356 70.8251811,54.5775644 C70.8048101,53.9810898 70.9059625,53.3832085 71.1314479,52.7818102" id="Fill-8" fill="#21478D"></path><polygon id="Fill-10" fill="#21478D" points="68.9197942 58.0843144 75.991326 63.1620856 75.1575217 64.3261958 69.0532591 59.9440771 66.671262 63.2704076 65.7039928 62.5754585"></polygon><polygon id="Fill-12" fill="#21478D" points="64.9331979 63.4201593 70.9032932 69.7598119 69.8615646 70.7424475 64.7091174 65.270778 61.7349577 68.0787102 60.918012 67.2114305"></polygon><path d="M58.4770797,77.3759763 L59.9922574,76.6683661 L57.3096131,70.9132305 L55.8042697,71.6159169 C53.7713886,72.5654932 53.2010019,73.9997051 54.0952166,75.9185525 C54.9894314,77.8374 56.4505207,78.322739 58.4770797,77.3759763 L58.4770797,77.3759763 Z M58.097056,69.2412729 L61.7771747,77.1368237 L58.8198737,78.5189847 C57.9354932,78.932578 57.1023913,79.1295271 56.3226754,79.1105356 C55.542257,79.0908407 54.8468347,78.8678661 54.2350035,78.4409085 C53.6231724,78.0139508 53.1251376,77.3886373 52.7408992,76.5642644 C52.3510412,75.7258237 52.1908834,74.9316966 52.2625329,74.1818831 C52.3341825,73.4313661 52.624293,72.7476712 53.1321621,72.1300949 C53.6407335,71.513222 54.3621464,70.9870864 55.2956982,70.5502814 L58.097056,69.2412729 Z" id="Fill-14" fill="#21478D"></path><path d="M45.8567099,74.6063788 C45.2673571,74.6921924 44.7665125,74.9067263 44.3527713,75.2485737 C43.9397326,75.5897178 43.638383,76.0244127 43.4487223,76.5505483 C43.2590617,77.0766839 43.209188,77.6492432 43.2991012,78.2696331 C43.3904192,78.8977602 43.6018557,79.4344466 43.9327082,79.8803958 C44.2628582,80.3263449 44.6758969,80.654828 45.1690145,80.8644381 C45.6628346,81.0747517 46.2037186,81.13665 46.7930715,81.0508364 C47.3746974,80.9664297 47.8720298,80.7525992 48.2850685,80.4107517 C48.6981072,80.0689042 49.0001593,79.6363195 49.1905224,79.1144042 C49.3808855,78.5917856 49.4300567,78.0178195 49.3387387,77.3896924 C49.2488255,76.7693025 49.037389,76.2340229 48.7065366,75.7845568 C48.3742792,75.3343873 47.9626454,75.0044975 47.4688253,74.7948873 C46.9757077,74.5845737 46.4383359,74.521972 45.8567099,74.6063788 M45.671264,73.3353534 C46.3140028,73.2425059 46.9237266,73.2692347 47.5004354,73.4169466 C48.0771442,73.5646585 48.5969549,73.8115483 49.0598673,74.1569127 C49.5227797,74.5029805 49.9077206,74.9313449 50.2132849,75.4427093 C50.5188493,75.9554805 50.7176417,76.5315568 50.8117696,77.1744551 C50.9037901,77.8103195 50.8763947,78.4166415 50.7288809,78.9941246 C50.581367,79.572311 50.3341058,80.0949297 49.9849897,80.5626839 C49.6365761,81.0311415 49.2073811,81.4180059 48.6959998,81.7232771 C48.1846186,82.0299551 47.6121245,82.2297178 46.977815,82.3225653 C46.3357786,82.4154127 45.7246499,82.3879805 45.1437264,82.240972 C44.5635054,82.0946669 44.0415874,81.8477771 43.5779725,81.5017093 C43.1157625,81.1570483 42.7315241,80.7279805 42.4252573,80.2166161 C42.119693,79.7045483 41.9201981,79.1270653 41.8267727,78.4841669 C41.7340497,77.8490059 41.7635525,77.2419805 41.915281,76.6637941 C42.066307,76.0856076 42.3163781,75.5622856 42.6647917,75.0945314 C43.0132053,74.6267771 43.4424003,74.2399127 43.9537816,73.9339381 C44.4644604,73.6272602 45.0369545,73.4282008 45.671264,73.3353534" id="Fill-16" fill="#21478D"></path><polygon id="Fill-18" fill="#21478D" points="38.6333091 73.9558839 39.6469398 82.9993669 38.1823382 82.7313754 37.5838536 75.430189 34.317476 81.9077059 32.9884467 81.6643331 32.2101356 74.5157822 29.0933792 81.0664517 27.6519584 80.8033839 31.8076336 72.7066636 33.2160394 72.9634008 33.9915407 80.0648246 37.202425 73.6935195"></polygon><polygon id="Fill-20" fill="#21478D" points="28.5562182 71.5867966 24.2860441 79.1784831 23.1487828 78.5376949 22.0318924 70.288339 18.7788613 76.0723136 17.6415999 75.430822 21.9124764 67.8384322 23.0497378 68.4799237 24.1610086 76.7138051 27.4091225 70.9389746"></polygon><path d="M11.0729497,53.0499424 C11.194473,53.3720949 11.2893034,53.713239 11.3588456,54.0754847 C11.4283878,54.4370271 11.4691297,54.7830949 11.478964,55.1143915 C11.4887982,55.4442814 11.4663199,55.7347814 11.412934,55.983078 L10.2026182,56.2777983 C10.2812922,55.8564678 10.3016632,55.3936373 10.263731,54.8900102 C10.2257989,54.3856797 10.1309686,53.9298831 9.97783519,53.5219169 C9.77763786,52.9845271 9.51070808,52.6032898 9.1777483,52.3775017 C8.84408607,52.1510102 8.48443332,52.1109169 8.09879003,52.2558153 C7.87681684,52.3381119 7.70682472,52.4612051 7.58881366,52.6243915 C7.47010015,52.7868746 7.39212856,53.0204 7.35560132,53.3242644 C7.3176692,53.6274254 7.31345452,54.0353915 7.34155239,54.5467559 C7.38088941,55.2177898 7.35841111,55.7734678 7.2741175,56.2130864 C7.19052633,56.6527051 7.03107091,57.0065102 6.79715613,57.2737983 C6.5625389,57.5417898 6.24152071,57.7514 5.83410158,57.9040356 C5.36275978,58.0805864 4.91178894,58.1178661 4.48118906,58.0144678 C4.05129162,57.9096627 3.66283855,57.6824678 3.31582983,57.3307729 C2.96811867,56.9797814 2.6878424,56.5218746 2.47640592,55.9556458 C2.32116518,55.5406458 2.2179055,55.0996203 2.16592443,54.6339763 C2.11394337,54.1676288 2.12167029,53.7427814 2.18980763,53.3573237 L3.3769427,53.132239 C3.30599558,53.5099593 3.28843441,53.9108915 3.32496164,54.3336288 C3.36148887,54.7570695 3.44578249,55.1474508 3.57994982,55.5054763 C3.76188354,55.992222 4.00212035,56.3347729 4.29995778,56.5331288 C4.59849767,56.7314847 4.92654032,56.7631373 5.28408574,56.6294932 C5.49130754,56.5514169 5.6528703,56.4381712 5.76807158,56.2883492 C5.88327285,56.1392305 5.95702976,55.9282136 5.98934232,55.6545949 C6.02165487,55.3809763 6.02938178,55.0152136 6.01252306,54.5566034 C5.97669827,53.8271881 6.00128391,53.2236797 6.08768487,52.746078 C6.17408582,52.2691797 6.3328388,51.887239 6.56394379,51.6002559 C6.79504878,51.3139763 7.11044739,51.0959254 7.51084206,50.9461034 C8.26878215,50.6612305 8.96420447,50.7062475 9.59710903,51.0811542 C10.230716,51.4553576 10.7224288,52.1123237 11.0729497,53.0499424" id="Fill-22" fill="#21478D"></path><path d="M9.02356123,44.6243873 C9.13384537,45.5261331 9.04603953,46.343472 8.75873879,47.0764042 C8.47143805,47.8086331 8.0218721,48.4072178 7.4093385,48.8714551 C6.7982098,49.334989 6.05923577,49.6205653 5.19592867,49.7260737 C4.53703358,49.8076669 3.9188804,49.7675737 3.34146914,49.6079042 C2.76335543,49.446828 2.24916438,49.1858703 1.79678865,48.8215144 C1.34511536,48.4571585 0.974223454,48.0020653 0.683410483,47.4562347 C0.394002405,46.9111076 0.207151559,46.2963449 0.12356039,45.6133534 C0.0666622004,45.1512263 0.0708768812,44.6694042 0.136204433,44.1685907 C0.202234431,43.6670737 0.323055279,43.2288619 0.500774317,42.8525483 L1.75674918,42.940472 C1.58535216,43.4244042 1.47085334,43.86965 1.4132527,44.2769127 C1.35565206,44.6848788 1.35143738,45.0900314 1.39990621,45.4909636 C1.4778778,46.1219042 1.67737269,46.6571839 2.00120066,47.0982093 C2.32432619,47.5399381 2.74087713,47.8627941 3.25015106,48.0653703 C3.75942498,48.26865 4.33262156,48.3312517 4.96903835,48.252472 C5.61318206,48.172989 6.15547098,47.9739297 6.59731001,47.6538873 C7.03914904,47.3345483 7.35876233,46.9195483 7.55825722,46.4095907 C7.75704966,45.8996331 7.81675764,45.3228534 7.73738115,44.6778449 C7.68891233,44.2755059 7.57722329,43.8541754 7.40371893,43.4138534 C7.23091702,42.9721246 7.01667075,42.5564212 6.76027767,42.1646331 L7.99236934,41.8621754 C8.2635138,42.2532602 8.48759433,42.6858449 8.66531337,43.1606331 C8.84232996,43.6354212 8.96174591,44.1228703 9.02356123,44.6243873" id="Fill-24" fill="#21478D"></path><path d="M1.42456209,37.0038619 L1.28407273,38.1306924 L4.46545425,38.5295144 L4.59751425,37.4709127 C4.75977945,36.1738619 4.31021351,35.4592178 3.2502213,35.3262771 C2.18952665,35.1933364 1.58120773,35.7532347 1.42456209,37.0038619 L1.42456209,37.0038619 Z M8.6337735,40.4385144 L0,39.3559975 L0.335067119,36.6704551 C0.414443607,36.042328 0.594269985,35.5098619 0.875248701,35.0751669 C1.15692986,34.640472 1.51377283,34.3218364 1.9471825,34.11715 C2.37988973,33.9131669 2.87370982,33.8463449 3.42653544,33.9152771 C3.97163415,33.9835059 4.42752212,34.1832686 4.7934969,34.5145653 C5.16017412,34.8458619 5.42569901,35.2446839 5.59077401,35.7117347 L9.46406561,33.8055483 L9.26176094,35.4212347 L5.77060039,37.0404381 C5.7677906,37.1248449 5.76076613,37.2127686 5.74882453,37.3042093 L5.57883241,38.6687856 L8.80517052,39.0725314 L8.6337735,40.4385144 Z" id="Fill-26" fill="#21478D"></path><path d="M10.0871359,28.9850068 C10.310514,28.4321424 10.3800562,27.8912356 10.2936553,27.3608797 C10.2079568,26.8305237 9.98598358,26.3515153 9.62843816,25.9224475 C9.27089274,25.4919729 8.80236073,25.1599729 8.22284213,24.9250407 C7.63559661,24.6858881 7.06661471,24.597261 6.51449154,24.6570492 C5.96307081,24.7182441 5.4720605,24.9081593 5.04146062,25.2282017 C4.61156318,25.5482441 4.28352053,25.9836424 4.06014245,26.5379136 C3.83887171,27.0823373 3.77143682,27.6204305 3.85783777,28.1500831 C3.94423873,28.6797356 4.16410458,29.1587441 4.51743531,29.5864051 C4.87146849,30.0154729 5.3414054,30.3481763 5.92935336,30.5866254 C6.50957441,30.8229644 7.07644897,30.9108881 7.63138193,30.8518034 C8.18701735,30.7927186 8.68013499,30.6035068 9.11003243,30.282761 C9.54063231,29.963422 9.86656762,29.5301339 10.0871359,28.9850068 M11.2756759,29.4675322 C11.0312244,30.0696339 10.700372,30.5824051 10.2817137,31.0065492 C9.86305539,31.4299898 9.38749891,31.7549559 8.85574669,31.9800407 C8.32329202,32.2051254 7.7599297,32.3204814 7.16425482,32.3261085 C6.56928239,32.3317356 5.97079772,32.2128627 5.36950327,31.9680831 C4.77523328,31.7268203 4.26666181,31.3969305 3.84308639,30.9770068 C3.42021342,30.5577864 3.09498056,30.0801847 2.86809025,29.5420915 C2.64049749,29.0039983 2.52459377,28.4377695 2.51897419,27.8405915 C2.51335462,27.2448203 2.63066323,26.6504559 2.87230493,26.0546847 C3.11535152,25.4525831 3.44760885,24.9377017 3.86767203,24.5107441 C4.28843766,24.0823797 4.76399413,23.7567102 5.29574635,23.530922 C5.82820102,23.3065407 6.39156335,23.1911847 6.98723823,23.1848542 C7.58291311,23.1792271 8.18069532,23.2988034 8.78269222,23.5428797 C9.37625976,23.7841424 9.88412879,24.1161424 10.3062993,24.5388797 C10.7284698,24.9623203 11.0530003,25.4420322 11.2798906,25.9808288 C11.5060784,26.5175153 11.6226846,27.0844475 11.6283042,27.680922 C11.6339237,28.2766932 11.5159127,28.871761 11.2756759,29.4675322" id="Fill-28" fill="#21478D"></path><polygon id="Fill-30" fill="#21478D" points="13.65395 24.236422 6.65266282 19.0615831 7.50332588 17.9087271 13.5457732 22.3752525 15.9734293 19.0819814 16.9315667 19.7902949"></polygon><polygon id="Fill-32" fill="#21478D" points="17.7509709 18.9946203 11.9515702 12.4981119 13.0185869 11.5422051 18.0242227 17.1496288 21.0721393 14.4218831 21.8652017 15.3109678"></polygon><path d="M24.5599984,5.22154407 L23.0272595,5.88906102 L25.5595801,11.7131288 L27.0817823,11.0498322 C29.1399514,10.1530102 29.746163,8.7328661 28.9025244,6.79151017 C28.0574809,4.85085763 26.6104405,4.32753559 24.5599984,5.22154407 L24.5599984,5.22154407 Z M24.7285856,13.3632814 L21.2542838,5.37417966 L24.2467071,4.06939153 C25.1423268,3.67971356 25.9803458,3.50456949 26.7593593,3.54325593 C27.5376703,3.58334915 28.2274731,3.82531525 28.8280651,4.26704407 C29.4286571,4.70877288 29.9105356,5.34815424 30.2729981,6.18167119 C30.6417827,7.02995932 30.7801647,7.82830678 30.6895491,8.57671356 C30.598231,9.32441695 30.2905593,10.0003746 29.766534,10.6045864 C29.2425087,11.2080949 28.5084518,11.715239 27.5629584,12.1274254 L24.7285856,13.3632814 Z" id="Fill-34" fill="#21478D"></path><path d="M37.0997975,8.31807712 C37.6905552,8.24703475 38.1970194,8.04656864 38.6191899,7.71527203 C39.040658,7.38467881 39.3532468,6.9570178 39.5562539,6.43650932 C39.759261,5.91600085 39.8238861,5.34414492 39.7494268,4.72234831 C39.6749674,4.09211102 39.4775799,3.55050085 39.1579666,3.09540763 C38.8383533,2.6410178 38.4351488,2.30268729 37.9476508,2.0804161 C37.4594503,1.85673814 36.9199711,1.78077203 36.3285109,1.8525178 C35.7447776,1.92145 35.2418257,2.1219161 34.8203577,2.45321271 C34.3988896,2.78450932 34.0863008,3.20865339 33.8825912,3.72634831 C33.6788816,4.24333983 33.614959,4.81589915 33.6901208,5.44613644 C33.7638777,6.06863644 33.9605628,6.60883983 34.2808785,7.06745 C34.6004918,7.52606017 35.0043987,7.86579746 35.4918968,8.08877203 C35.9800973,8.31174661 36.5153618,8.3884161 37.0997975,8.31807712 M37.2508236,9.59261949 C36.6073823,9.67069576 35.9990634,9.62778898 35.4258668,9.46530593 C34.8526702,9.30211949 34.3391816,9.04256864 33.885401,8.68524661 C33.4316204,8.32792458 33.0586211,7.88900932 32.7657008,7.36920424 C32.4734829,6.85080593 32.2887394,6.26839915 32.2114703,5.62268729 C32.135606,4.9854161 32.1791577,4.37909407 32.3414229,3.80583136 C32.5036881,3.23256864 32.7649983,2.71628051 33.1253536,2.25767034 C33.4857088,1.79906017 33.9254404,1.42274661 34.4438462,1.13013644 C34.9622519,0.837526271 35.5403656,0.653238136 36.1767824,0.576568644 C36.8209261,0.499899153 37.4313524,0.542102542 38.0080612,0.703882203 C38.58477,0.866365254 39.100366,1.1259161 39.5541466,1.48323814 C40.0079272,1.84126356 40.3809265,2.27947542 40.6738468,2.79857712 C40.9660646,3.3183822 41.1508081,3.90008559 41.2273748,4.54579746 C41.3032391,5.18306864 41.2582825,5.78868729 41.0925051,6.36335678 C40.9260252,6.93732288 40.6633101,7.45361102 40.3029549,7.91222119 C39.9425997,8.37083136 39.502868,8.74644153 38.9844622,9.03905169 C38.4660565,9.33236525 37.8879428,9.51665339 37.2508236,9.59261949" id="Fill-36" fill="#21478D"></path><polygon id="Fill-38" fill="#21478D" points="44.3153309 9.15679915 43.5405321 0.0886974576 44.9974068 0.395375424 45.403421 7.70992627 48.8390883 1.32173983 50.1610931 1.6002822 50.7511484 8.76571441 54.0393019 2.30015508 55.4729958 2.60190932 51.1058841 10.5860873 49.7045027 10.2913669 49.1172572 3.17306186 45.7384881 9.45573983"></polygon><polygon id="Fill-40" fill="#21478D" points="54.3135371 11.7862814 58.7775864 4.3064339 59.8979891 4.97676441 60.8027405 13.2514424 64.2032854 7.55257797 65.3236881 8.22431525 60.8596387 15.7034593 59.7399385 15.0324254 58.8386993 6.77392542 55.443774 12.4629424"></polygon></g><g id="Group-45" transform="translate(34.000000, 31.000000)" fill="none"><mask id="mask-4" fill="#FFFFFF"><use href="#path-3" fill="#FFFFFF"></use></mask><g id="Clip-44" fill="none"></g><polygon id="Fill-43" fill="#21478D" mask="url(#mask-4)" points="-9.16666667 31.7241379 24.1666667 31.7241379 24.1666667 -8.72413793 -9.16666667 -8.72413793"></polygon></g></g></g></g></svg>