<svg xmlns="http://www.w3.org/2000/svg" xmlns:xlink="http://www.w3.org/1999/xlink" version="1.1" id="Layer_1" x="0px" y="0px" viewBox="0 0 175.75 88.21" style="enable-background:new 0 0 175.75 88.21;" width="206"  height="103" >
<style type="text/css">
	.st0{fill-rule:evenodd;clip-rule:evenodd;fill:#DD6335;}
	.st1{fill-rule:evenodd;clip-rule:evenodd;fill:#737070;}
</style>
<g>
	<path class="st0" d="M35.97,1.3c19.7,0.4,32.82,12.35,36.02,28.76c0.23,1.18,0.23,2.44,0.29,3.66c0.12,2.23-2.85,2.2-2.95,0.23&#10;  c-0.06-1.2-0.55-2.7-0.9-3.82c-4.9-14.06-25.36-20.94-30-8.83c-1.19,3.09-0.7,7.28-0.74,10.57l-0.02,1.89&#10;  c0.07,2.72-3.03,2.81-3.14,0.08l-0.07-1.85c-0.12-3.1,0.29-7.17-0.68-10.07C29.62,9.43,7.52,16.47,3.74,30.98l-0.39,2.76&#10;  c-0.54,3.78-3.6,2.68-3.34-0.07C1.94,15.01,17.58,1.05,35.97,1.3L35.97,1.3z"/>
	<path class="st0" d="M35.97,72.86c19.7-0.4,32.82-12.35,36.02-28.76c0.23-1.18,0.23-2.44,0.29-3.66c0.12-2.23-2.85-2.2-2.95-0.23&#10;  c-0.06,1.2-0.55,2.7-0.9,3.83c-4.9,14.06-25.36,20.94-30,8.83c-1.19-3.09-0.7-7.27-0.74-10.57l-0.02-1.88&#10;  c0.07-2.72-3.03-2.81-3.14-0.08l-0.07,1.85c-0.12,3.1,0.29,7.17-0.68,10.08c-4.16,12.48-26.26,5.43-30.04-9.08l-0.39-2.76&#10;  c-0.54-3.78-3.6-2.68-3.34,0.07C1.94,59.15,17.58,73.11,35.97,72.86L35.97,72.86z"/>
	<path class="st1" d="M75.04,32.27c0.34,4.11,4.98,3.92,5.03,0.21l0.05-23.46c0.86-4.07,7.18-3.85,7.91,0.05l0.31,23.91&#10;  c0.37,3,4.93,2.81,5.03-0.06L93.33,9.19c0.62-4.01,6.79-4.24,8-0.22l0.31,24c0.31,3.01,4.99,3.01,4.95-0.33l-0.22-23.91&#10;  C106.14,1.92,94.62-1.5,90.58,3.87C86.01-1.09,75.45,1.32,75,8.99L75.04,32.27L75.04,32.27z"/>
	<path class="st1" d="M75.52,40.78c0.38-4.1,5.02-3.87,5.03-0.15L80.5,64.08c0.81,4.08,7.14,3.94,7.91,0.05l0.41-23.9&#10;  c0.41-2.99,4.96-2.76,5.03,0.12l-0.14,23.73c0.58,3.67,7.8,3.63,8.17,0.32l0.24-23.99c0.35-3.01,5.02-2.95,4.94,0.39l-0.32,23.91&#10;  c-0.31,6.8-12.04,10.08-16.02,4.67c-4.63,4.91-15.16,2.37-15.52-5.3L75.52,40.78L75.52,40.78z"/>
	<path class="st1" d="M115.96,1.03l24.98,0.01c3.55,0.13,3.15,4.71-0.03,4.68l-5.25,0.11l0.13,26.4c-0.06,3.71-4.88,3.59-5.11,0.25&#10;  l-0.27-26.55l-12.92,0.07c-1.64,0.07-2.87,0.87-2.85,2.11l-0.03,5.82l8.51,0.19c2.75-0.04,2.58,4.93,0.11,5.02l-8.52-0.1&#10;  l-0.19,8.09c0.12,1.32,1.72,3.22,3.39,2.86l7.1,0.18c3.71-0.07,3.59,4.84,0.26,4.83l-9.08-0.05c-2.85-0.09-6.5-2.66-6.64-6.28&#10;  l-0.16-21.01C109.36,4.37,112.87,1.22,115.96,1.03L115.96,1.03z"/>
	<path class="st1" d="M137.32,31.92c-0.65,2.87,4.44,4.33,5.41,0.13l5.02-18.99l4.61,16.74l-4.2-0.03c-3.7-0.12-3.84,5.35-0.03,5.31&#10;  l7.71-0.15c1.99-0.02,3.13-1.72,2.23-4.39L150.2,3.06c-1.05-3.11-4.22-2.96-5.31,0.17L137.32,31.92L137.32,31.92z"/>
	<path class="st1" d="M159.7,3.14l0.11,28.43c0.07,2.02,0.85,3.17,2.96,3.22l7.79,0.07c3.52-0.09,3.27-5.37-0.68-5.18l-5.03-0.03&#10;  l-0.03-26.56C164.66,0.34,159.72-0.03,159.7,3.14L159.7,3.14z"/>
	<path class="st1" d="M109.82,46.54c0.98-11.26,19.05-11.32,20.48-0.04l0.27,16.09c-1.49,11.7-19.62,11.79-20.57,0.17L109.82,46.54&#10;  L109.82,46.54z M114.6,48.61c0.3-7.37,10.44-7.69,10.86-0.05l0.11,13.26c-0.73,6.52-10.04,6.5-10.91,0.14L114.6,48.61L114.6,48.61z"/>
	<path class="st1" d="M153.08,46.92c0,4.1-2.74,7.58-6.46,8.65l7.01,11.69c1,1.38,0.94,3.28-0.38,3.97&#10;  c-1.37,0.76-2.78,0.15-3.63-1.46l-8.26-13.7h-3.07l0.17,12.74c0.01,0.15,0,0.3,0.01,0.45h-0.01c-0.12,1.24-1.2,2.2-2.49,2.2&#10;  c-1.74-0.01-2.42-0.94-2.41-2.79l-0.26-27.72c-0.18-2.38,1.81-3.06,2.29-3l8.9-0.05C149.17,37.87,153.08,42.3,153.08,46.92&#10;  L153.08,46.92z M138.56,42.94h5.76c2.16-0.01,3.57,2.04,3.57,3.96c0,1.93-1.3,4.09-3.57,3.96h-5.77V42.94L138.56,42.94z"/>
	<path class="st1" d="M158.54,37.68L158.54,37.68c1.44,0,2.61,1.23,2.61,2.73v7.78l7.17-9.45c0.91-1.19,2.58-1.46,3.73-0.59l0,0&#10;  c1.14,0.87,1.34,2.56,0.43,3.75l-6.86,9.04l9.74,16.71c0.76,1.3,0.36,2.95-0.88,3.67l0,0c-1.24,0.72-2.87,0.25-3.63-1.04&#10;  l-9.7-16.64v15.35c0,1.5-1.17,2.73-2.61,2.73l0,0c-1.44,0-2.61-1.23-2.61-2.73V40.41C155.93,38.91,157.11,37.68,158.54,37.68&#10;  L158.54,37.68z"/>
	<path class="st1" d="M6.8,83.16h0.98c0.95,0,1.67-0.17,2.17-0.52c0.5-0.35,0.75-0.85,0.75-1.51c0-0.68-0.25-1.18-0.74-1.49&#10;  c-0.49-0.32-1.28-0.47-2.37-0.47H6.8V83.16L6.8,83.16L6.8,83.16z M5.67,87.89v-9.66h2.04c0.76,0,1.37,0.05,1.82,0.16&#10;  c0.45,0.11,0.85,0.28,1.19,0.53c0.35,0.25,0.63,0.57,0.83,0.95c0.2,0.38,0.29,0.78,0.29,1.21c0,0.97-0.36,1.72-1.07,2.26&#10;  c-0.71,0.53-1.73,0.8-3.03,0.8c-0.14,0-0.29,0-0.45,0c-0.16,0-0.32-0.01-0.49-0.01v3.76H5.67L5.67,87.89L5.67,87.89z M25.48,87.89&#10;  v-9.98h0.15l6.47,7.56v-7.25h1.12v9.97h-0.15l-6.47-7.56v7.24H25.48L25.48,87.89L25.48,87.89z M47.78,87.89v-9.66h5.3v0.97h-4.19&#10;  v3.16h3.62v0.98h-3.62v3.52h4.24v1.04H47.78L47.78,87.89L47.78,87.89z M68.3,78.23v5.65c0,1.08,0.23,1.89,0.69,2.44&#10;  c0.46,0.55,1.13,0.82,2.03,0.82c0.88,0,1.55-0.28,2.01-0.84c0.45-0.56,0.68-1.38,0.68-2.46v-5.61h1.04v5.8c0,1.3-0.33,2.33-1,3.07&#10;  c-0.66,0.74-1.57,1.11-2.73,1.11c-1.23,0-2.18-0.36-2.85-1.08c-0.67-0.72-1.01-1.74-1.01-3.07v-5.83H68.3L68.3,78.23L68.3,78.23z&#10;   M88.36,87.89l1.96-9.98h0.11l3.33,7.85l3.34-7.85h0.11l1.91,9.98H98l-1.23-6.66l-2.93,6.98h-0.15l-2.97-6.96l-1.28,6.63H88.36&#10;  L88.36,87.89L88.36,87.89z M114.13,84.5h3.74l-1.85-4.26L114.13,84.5L114.13,84.5L114.13,84.5z M111.44,87.89l4.52-9.91h0.14&#10;  l4.5,9.91h-1.25l-1.08-2.46h-4.57l-1.07,2.46H111.44L111.44,87.89L111.44,87.89z M134.64,87.89v-8.62h-3.41v-1.04h7.98v1.04h-3.41&#10;  v8.62H134.64L134.64,87.89L134.64,87.89z M152.57,87.89v-9.66h1.15v9.66H152.57L152.57,87.89L152.57,87.89z M175.29,87.26&#10;  c-0.43,0.31-0.88,0.55-1.37,0.7c-0.49,0.16-0.99,0.24-1.51,0.24c-0.55,0-1.08-0.09-1.59-0.27c-0.51-0.18-0.97-0.44-1.39-0.78&#10;  c-0.6-0.48-1.06-1.07-1.38-1.78c-0.32-0.71-0.48-1.48-0.48-2.31c0-1.48,0.46-2.71,1.39-3.69c0.93-0.98,2.09-1.47,3.48-1.47&#10;  c0.51,0,0.99,0.08,1.46,0.23c0.47,0.15,0.92,0.38,1.37,0.69l-0.12,1.2c-0.44-0.36-0.88-0.63-1.31-0.81&#10;  c-0.44-0.17-0.9-0.26-1.38-0.26c-1.08,0-1.97,0.39-2.67,1.16c-0.7,0.78-1.06,1.76-1.06,2.96c0,1.18,0.35,2.16,1.04,2.93&#10;  c0.69,0.77,1.57,1.15,2.64,1.15c0.52,0,1.01-0.1,1.5-0.3c0.48-0.2,0.97-0.51,1.46-0.93L175.29,87.26L175.29,87.26z"/>
	<path class="st1" d="M171.5,0.48c-2.05,0-3.73,1.68-3.73,3.73c0,1.03,0.42,1.96,1.09,2.63v0c0.68,0.68,1.61,1.09,2.63,1.09&#10;  c1.03,0,1.96-0.42,2.64-1.09c0.68-0.68,1.09-1.61,1.09-2.63c0-1.03-0.42-1.96-1.09-2.63h0C173.46,0.9,172.52,0.48,171.5,0.48&#10;  L171.5,0.48L171.5,0.48z M171.5,0c1.16,0,2.21,0.47,2.97,1.23h0c0.76,0.76,1.23,1.81,1.23,2.97s-0.47,2.21-1.23,2.97&#10;  c-0.76,0.76-1.81,1.23-2.97,1.23c-1.16,0-2.21-0.47-2.97-1.24v0c-0.76-0.76-1.23-1.81-1.23-2.97C167.29,1.89,169.18,0,171.5,0&#10;  L171.5,0z"/>
	<path class="st1" d="M169.86,6.21V1.87h1.93c0.39,0,0.68,0.04,0.88,0.12c0.2,0.08,0.36,0.21,0.48,0.41&#10;  c0.12,0.2,0.18,0.42,0.18,0.66c0,0.31-0.1,0.57-0.3,0.78c-0.2,0.21-0.51,0.35-0.92,0.4c0.15,0.07,0.27,0.14,0.35,0.22&#10;  c0.17,0.15,0.33,0.35,0.48,0.58l0.76,1.18h-0.72l-0.57-0.9c-0.17-0.26-0.31-0.46-0.42-0.6c-0.11-0.14-0.2-0.24-0.29-0.29&#10;  c-0.09-0.06-0.17-0.09-0.26-0.12c-0.07-0.01-0.17-0.02-0.32-0.02h-0.67v1.93H169.86L169.86,6.21z M170.44,3.78h1.24&#10;  c0.26,0,0.47-0.03,0.62-0.08c0.15-0.05,0.26-0.14,0.34-0.26c0.08-0.12,0.12-0.25,0.12-0.39c0-0.21-0.07-0.37-0.22-0.51&#10;  c-0.15-0.13-0.38-0.2-0.71-0.2h-1.38V3.78L170.44,3.78z"/>
</g>
</svg>