<svg xmlns="http://www.w3.org/2000/svg" xmlns:xlink="http://www.w3.org/1999/xlink" version="1.1" id="layer" x="0px" y="0px" viewBox="0 0 162.6 162.6" style="enable-background:new 0 0 162.6 162.6;" width="162.6"  height="162.6" >
<style type="text/css">
	.st0{fill:#FFFFFF;}
</style>
<g>
	<path class="st0" d="M131.6,30.7C118.2,17.2,100.3,9.8,81.3,9.8S44.4,17.2,31,30.7C17.5,44.1,10.1,62,10.1,81&#10;  c0,21.2,9.3,41.1,25.6,54.7l1.3-1.6C21.3,120.9,12.2,101.6,12.2,81c0-18.5,7.2-35.8,20.2-48.9c13.1-13,30.4-20.2,48.9-20.2&#10;  s35.8,7.2,48.9,20.2c13,13.1,20.2,30.4,20.2,48.9c0,20.6-9.1,39.9-24.9,53.1l1.3,1.6c16.3-13.6,25.6-33.5,25.6-54.7&#10;  C152.5,62,145.1,44.1,131.6,30.7z"/>
	<path class="st0" d="M24.2,106.2c-1,0-2-0.3-2.9-0.8l-0.2,2.3c1.3,0.3,1.9,0.5,3.3,0.5c2.6,0,4.8-1.1,4.8-3.9&#10;  c0-4.3-5.6-3.3-5.6-5.6c0-1.4,1.1-1.8,2-1.8c0.9,0,1.8,0.2,2.6,0.6l0.2-2.1c-0.9-0.3-2-0.5-3.1-0.5c-2.2,0-4.5,1-4.5,3.9&#10;  c0,4.2,5.6,3.2,5.6,5.7C26.4,105.7,25.1,106.2,24.2,106.2z"/>
	<path class="st0" d="M31.8,102.7c-0.9,0.5-1.6,1.3-1.6,2.7c0,1.8,1.6,2.8,3.3,2.8c1.1,0,2.3-0.6,2.9-1.6h0c0,0.3,0,0.9,0.1,1.4h2.1&#10;  c0-0.7-0.1-1.4-0.1-2.1c0-0.7,0-1.4,0-2.4v-1.2c0-2.8-1.2-4-4.1-4c-1,0-2.3,0.3-3.3,0.7l0.1,2.1c0.8-0.7,1.9-1,2.9-1&#10;  c1.4,0,2.1,0.5,2.1,2H35C34,102.1,32.8,102.2,31.8,102.7z M36.3,103.6c0,0.7-0.1,1.4-0.5,2c-0.4,0.5-1,0.8-1.7,0.8&#10;  c-0.9,0-1.6-0.4-1.6-1.2c0-1.4,1.6-1.6,2.7-1.6H36.3z"/>
	<path class="st0" d="M44.9,95.9c0.6,0,0.8,0.2,1.1,0.3l0.2-2C45.7,94.1,45,94,44.4,94c-1.9,0-3,1.3-3,3.2v1.3h-1.8v1.8h1.8v7.6h2.4&#10;  v-7.6H46v-1.8h-2.1v-1.2C43.8,96.6,44.1,95.9,44.9,95.9z"/>
	<path class="st0" d="M46.6,103.3c0,3.1,1.8,4.9,4.9,4.9c1.3,0,2.3-0.3,3.3-0.7h0v-2c-0.9,0.5-1.9,0.9-3.1,0.9&#10;  c-1.5,0-2.6-0.8-2.7-2.4h6.5c0-3.3-1-5.7-4.5-5.7C48,98.3,46.6,100.6,46.6,103.3z M51.1,100.1c1.4,0,1.9,1,2,2.2h-4.2&#10;  C49,101.1,49.7,100.1,51.1,100.1z"/>
	<path class="st0" d="M66.2,105.6c-0.6,0.3-1.8,0.5-2.8,0.5c-2.7,0-4.3-2-4.3-4.6s1.7-4.6,4.3-4.6c0.9,0,1.8,0.1,2.8,0.7l0.2-2.2&#10;  c-0.9-0.4-2-0.5-2.9-0.5c-4.4,0-7,2.4-7,6.8c0,4.3,2.9,6.4,7,6.4c1,0,2-0.2,2.9-0.4L66.2,105.6z"/>
	<path class="st0" d="M76.9,103.3c0-3.1-2.1-5-4.9-5c-2.8,0-4.9,1.9-4.9,5c0,2.7,1.8,4.9,4.9,4.9C75,108.2,76.9,106,76.9,103.3z&#10;   M71.9,106.3c-1.9,0-2.3-1.7-2.4-3.3c0-1.4,0.8-2.8,2.4-2.8c1.6,0,2.4,1.4,2.4,2.8C74.3,104.6,73.8,106.3,71.9,106.3z"/>
	<path class="st0" d="M87,108v-6c0-2.1-1-3.7-3.2-3.7c-1.3,0-2.3,0.4-3.1,1.5h0v-1.3h-2.3v9.4h2.4v-4.6c0-1.2,0.4-3.1,2.1-3.1&#10;  c1.6,0,1.6,1.6,1.6,2.7v5H87z"/>
	<path class="st0" d="M89.9,96.6v1.9h-1.8v1.8h1.8v4.8c0,1.9,1.1,3.1,3,3.1c0.7,0,1.3-0.1,1.8-0.2l-0.1-2c-0.2,0.2-0.7,0.3-1.1,0.3&#10;  c-0.9,0-1.1-0.7-1.1-1.6v-4.4h2.2v-1.8h-2.2v-2.7L89.9,96.6z"/>
	<path class="st0" d="M98.2,104.5c0-1.3,0-3.8,2-3.8c0.5,0,0.9,0.1,1.1,0.2v-2.5c-0.3-0.1-0.5-0.1-0.7-0.1c-1.5,0-2.5,1.5-2.6,2.4h0&#10;  v-2.1h-2.2v9.4h2.4V104.5z"/>
	<path class="st0" d="M108,106.6L108,106.6c0,0.3,0,0.9,0.1,1.4h2.1c0-0.7-0.1-1.4-0.1-2.1c0-0.7,0-1.4,0-2.4v-1.2&#10;  c0-2.8-1.2-4-4.1-4c-1,0-2.3,0.3-3.3,0.7l0.1,2.1c0.8-0.7,1.9-1,2.9-1c1.4,0,2.1,0.5,2.1,2h-1.4c-1,0-2.2,0.1-3.2,0.6&#10;  c-0.9,0.5-1.6,1.3-1.6,2.7c0,1.8,1.6,2.8,3.3,2.8C106.2,108.2,107.5,107.6,108,106.6z M104.2,105.2c0-1.4,1.6-1.6,2.7-1.6h1.1&#10;  c0,0.7-0.1,1.4-0.5,2c-0.4,0.5-1,0.8-1.7,0.8C104.8,106.4,104.2,106,104.2,105.2z"/>
	<path class="st0" d="M116.6,100.2c0.7,0,1.2,0.2,1.7,0.4l0.2-1.9c-0.7-0.2-1.4-0.3-2.4-0.3c-2.9,0-4.6,2.1-4.6,4.9&#10;  c0,2.9,1.6,5,4.6,5c1,0,1.7-0.1,2.4-0.3l-0.1-2c-0.4,0.2-1.2,0.4-1.9,0.4c-1.7,0-2.5-1.3-2.5-3.1&#10;  C114.1,101.4,115,100.2,116.6,100.2z"/>
	<path class="st0" d="M124.2,106.3c-0.9,0-1.1-0.7-1.1-1.6v-4.4h2.2v-1.8H123v-2.7l-2.4,0.8v1.9h-1.8v1.8h1.8v4.8&#10;  c0,1.9,1.1,3.1,3,3.1c0.7,0,1.3-0.1,1.8-0.2l-0.1-2C125.1,106.2,124.6,106.3,124.2,106.3z"/>
	<path class="st0" d="M135.7,103.3c0-3.1-2.1-5-4.9-5c-2.8,0-4.9,1.9-4.9,5c0,2.7,1.8,4.9,4.9,4.9&#10;  C133.9,108.2,135.7,106,135.7,103.3z M128.4,103c0-1.4,0.8-2.8,2.4-2.8c1.6,0,2.4,1.4,2.4,2.8c0,1.6-0.5,3.3-2.4,3.3&#10;  C128.9,106.3,128.4,104.6,128.4,103z"/>
	<path class="st0" d="M137.3,98.5v9.4h2.4v-3.4c0-1.3,0-3.8,2-3.8c0.5,0,0.9,0.1,1.1,0.2v-2.5c-0.3-0.1-0.5-0.1-0.7-0.1&#10;  c-1.5,0-2.5,1.5-2.6,2.4h0v-2.1H137.3z"/>
	<polygon class="st0" points="44.3,140.5 44.3,140.5 45.2,138 44,137.2 42.1,139 42,139 43,136.6 41.9,135.9 40.9,139.4 42,140.2 &#10;  44,138.4 43.1,140.9 44.3,141.7 47.2,139.3 46.2,138.7"/>
	<polygon class="st0" points="57.5,144.2 56,146.4 56,146.3 56.4,143.8 55,143.2 53.5,145.3 53.9,142.7 52.7,142.2 52.7,142.3 &#10;  51.7,141.7 50,143.7 50.7,141.2 49.4,140.5 47.6,142.4 47.6,142.4 48.3,139.9 47.2,139.3 46.5,142.9 47.7,143.6 49.5,141.7 &#10;  48.9,144.2 50.1,144.9 52.7,142.3 52.4,145.9 53.7,146.5 55.3,144.4 54.9,147 56.2,147.5 58.6,144.6"/>
	<polygon class="st0" points="57.5,148 58.6,148.3 58.9,147.3 57.8,146.9"/>
	<path class="st0" d="M62,145.6c-0.5-0.2-1-0.2-1.4-0.2l-0.2,0.8c0.4-0.1,0.8,0,1.2,0.1c0.5,0.1,0.7,0.4,0.6,0.8&#10;  c-0.1-0.1-0.3-0.1-0.5-0.2c-0.7-0.2-1.8-0.4-2.1,0.7c-0.2,0.7,0.3,1.3,0.9,1.5c0.5,0.1,0.9,0.1,1.3-0.3c-0.1,0.2-0.1,0.4-0.1,0.6&#10;  l1.1,0.3c0-0.3,0.1-0.6,0.2-0.8l0.4-1.3C63.5,146.4,62.9,145.8,62,145.6z M61,148.3c-0.3-0.1-0.5-0.3-0.4-0.5&#10;  c0.1-0.3,0.5-0.4,0.8-0.2c0.2,0,0.3,0.1,0.5,0.2C61.9,148.1,61.5,148.5,61,148.3z"/>
	<polygon class="st0" points="64.8,144.9 63.6,149.8 64.8,150.1 66,145.2"/>
	<path class="st0" d="M65.9,148.6c-0.2,1.1,0.5,2,1.7,2.2c0.3,0.1,0.7,0.1,1,0.1l0.2-0.9c-0.2,0.1-0.5,0.1-0.8,0&#10;  c-0.5-0.1-0.9-0.6-0.8-1.1c0.1-0.6,0.6-0.9,1.1-0.8c0.3,0.1,0.5,0.2,0.7,0.4l0.3-0.8c-0.2-0.2-0.6-0.3-0.9-0.4&#10;  C67.2,147,66.2,147.4,65.9,148.6z"/>
	<path class="st0" d="M72,149.4c-0.1,0.7-0.4,1-0.9,1c-0.3-0.1-0.5-0.3-0.4-1l0.3-1.7l-1.2-0.2l-0.3,2.2c-0.1,0.7,0.2,1.5,1.1,1.6&#10;  c0.6,0.1,1.1-0.1,1.4-0.6l-0.1,0.7l1.1,0.2l0.5-3.5l-1.2-0.2L72,149.4z"/>
	<path class="st0" d="M78.8,148.4c-0.5,0-1,0.1-1.3,0.6c-0.2-0.5-0.6-0.7-1.1-0.7c-0.6,0-1.1,0.2-1.3,0.7l0-0.7l-1.1-0.1l-0.2,3.6&#10;  l1.2,0.1l0.1-1.5c0-0.8,0.3-1.1,0.7-1.1c0.4,0,0.5,0.3,0.5,0.7l-0.1,1.9l1.2,0.1l0.1-1.5c0-0.8,0.3-1.1,0.7-1.1&#10;  c0.4,0,0.5,0.3,0.5,0.7l-0.1,1.9l1.2,0.1L80,150C80,149.1,79.8,148.5,78.8,148.4z"/>
	<path class="st0" d="M83.4,150c0,0.8-0.3,1.1-0.7,1.1c-0.3,0-0.6-0.2-0.6-0.9l0-1.7l-1.2,0l0,2.2c0,0.7,0.4,1.4,1.4,1.4&#10;  c0.6,0,1-0.2,1.3-0.7v0.7l1.1,0l0-3.6l-1.2,0L83.4,150z"/>
	<path class="st0" d="M86.2,149.3c0-0.2,0.3-0.3,0.6-0.3c0.3,0,0.7,0,1,0.2l0-0.8c-0.4-0.1-0.8-0.1-1.3-0.1&#10;  c-0.7,0.1-1.5,0.5-1.4,1.3c0.1,1.3,1.8,0.7,1.9,1.3c0,0.3-0.2,0.3-0.5,0.3c-0.5,0-0.9-0.1-1.2-0.2h0v0.9c0.4,0.1,0.7,0.1,1.3,0.1&#10;  c0.8-0.1,1.6-0.4,1.6-1.3C88,149.3,86.2,149.8,86.2,149.3z"/>
	<path class="st0" d="M92.2,147.6l-1.1,0.2l0.1,0.7c-0.3-0.4-0.8-0.6-1.3-0.6c-1.1,0.2-1.5,1-1.3,2c0.1,1,0.8,1.7,1.8,1.6&#10;  c0.5-0.1,0.9-0.3,1.1-0.7l0,0.2c0.1,0.7-0.2,1.1-0.9,1.2c-0.5,0.1-0.8,0-1.2-0.1l0.1,1c0.3,0.1,0.8,0.1,1.4,0&#10;  c1.4-0.2,2-0.7,1.9-2.2L92.2,147.6z M90.5,150.5c-0.4,0-0.7-0.2-0.8-0.7c-0.1-0.5,0.1-0.9,0.6-1c0.6-0.1,0.8,0.3,0.9,0.7&#10;  C91.2,150.1,90.9,150.5,90.5,150.5z"/>
	<path class="st0" d="M94.9,147.1c-0.5,0.1-0.7,0.4-0.9,0.9l-0.1-0.7l-1.1,0.2l0.7,3.5l1.2-0.2l-0.3-1.5c-0.1-0.7,0.1-1.2,0.7-1.3&#10;  c0.2,0,0.3,0,0.4,0l-0.1-1C95.2,147,95,147,94.9,147.1z"/>
	<path class="st0" d="M97.4,146.5c-1.1,0.3-1.9,1.2-1.6,2.3c0.3,1.1,1.3,1.6,2.4,1.3c1.1-0.3,1.9-1.1,1.6-2.3&#10;  C99.5,146.7,98.5,146.2,97.4,146.5z M98.1,149.3c-0.6,0.1-0.9-0.3-1-0.8c-0.1-0.5,0-1,0.5-1.2c0.6-0.1,0.9,0.3,1,0.8&#10;  C98.7,148.6,98.6,149.1,98.1,149.3z"/>
	<path class="st0" d="M102.3,145.2l0.5,1.4c0.2,0.7,0.1,1.1-0.4,1.3c-0.3,0.1-0.6,0-0.8-0.7l-0.5-1.6l-1.2,0.4l0.7,2.1&#10;  c0.2,0.7,0.8,1.2,1.7,0.9c0.5-0.2,0.9-0.6,1-1.1l0.2,0.6l1.1-0.3l-1.1-3.4L102.3,145.2z"/>
	<path class="st0" d="M106.3,143.6c-0.5,0.2-0.9,0.6-1,1.1l-0.2-0.6l-1,0.4l1.8,4.6l1.1-0.5l-0.7-1.8c0.4,0.3,0.9,0.3,1.3,0.1&#10;  c1-0.4,1.2-1.4,0.8-2.4C108.1,144,107.2,143.3,106.3,143.6z M106.9,146.4c-0.4,0.1-0.8-0.1-1-0.6c-0.2-0.5-0.1-1,0.4-1.1&#10;  c0.4-0.2,0.8,0.1,1,0.6C107.4,145.8,107.3,146.2,106.9,146.4z"/>
	<polygon class="st0" points="109.3,145.1 109.7,146.1 110.8,145.6 110.3,144.6"/>
	<path class="st0" d="M113.1,143.6c-0.5,0.2-1.1,0.1-1.3-0.4c-0.3-0.6-0.1-1.1,0.4-1.3c0.3-0.1,0.5-0.2,0.7-0.2l-0.3-0.8&#10;  c-0.3,0-0.7,0.1-1,0.3c-1,0.5-1.5,1.5-1,2.6c0.5,1.1,1.6,1.3,2.7,0.7c0.3-0.1,0.6-0.4,0.8-0.6l-0.4-0.8&#10;  C113.6,143.3,113.4,143.5,113.1,143.6z"/>
	<path class="st0" d="M114.6,139.6c-1,0.6-1.5,1.6-0.9,2.6c0.6,1,1.7,1.2,2.7,0.6c1-0.6,1.5-1.6,0.9-2.6&#10;  C116.7,139.2,115.6,139,114.6,139.6z M115.9,142.1c-0.5,0.3-0.9,0-1.2-0.5c-0.3-0.5-0.3-1,0.2-1.3c0.5-0.3,0.9,0,1.2,0.5&#10;  C116.4,141.3,116.4,141.8,115.9,142.1z"/>
	<path class="st0" d="M120.7,135.7c-0.4,0.3-0.7,0.7-0.7,1.3c-0.4-0.3-0.9-0.2-1.3,0.1c-0.5,0.3-0.7,0.8-0.7,1.3l-0.4-0.6l-0.9,0.6&#10;  l2,2.9l1-0.7l-0.8-1.2c-0.4-0.6-0.4-1-0.1-1.3c0.3-0.2,0.6,0,0.8,0.3l1.1,1.6l1-0.7l-0.8-1.2c-0.5-0.6-0.4-1-0.1-1.3&#10;  c0.3-0.2,0.6,0,0.8,0.3l1.1,1.6l1-0.7l-1.2-1.7C122,135.5,121.5,135.1,120.7,135.7z"/>
	<path class="st0" d="M138.8,23.8C123.4,8.5,103,0,81.3,0C59.6,0,39.2,8.5,23.8,23.8C8.5,39.2,0,59.6,0,81.3s8.5,42.1,23.8,57.5&#10;  c15.3,15.3,35.8,23.8,57.5,23.8c21.7,0,42.1-8.5,57.5-23.8c15.3-15.3,23.8-35.8,23.8-57.5S154.1,39.2,138.8,23.8z M136.7,136.7&#10;  c-14.8,14.8-34.5,23-55.4,23s-40.6-8.1-55.4-23c-14.8-14.8-23-34.5-23-55.4c0-20.9,8.2-40.6,23-55.4s34.5-23,55.4-23&#10;  s40.6,8.1,55.4,23c14.8,14.8,23,34.5,23,55.4C159.7,102.2,151.5,121.9,136.7,136.7z"/>
	<path class="st0" d="M51.4,124.7l-3.3,8.7h2.3l0.7-1.9h3.3l0.7,1.9h2.5l-3.3-8.7H51.4z M51.7,129.9l1.1-3.4l1,3.4H51.7z"/>
	<path class="st0" d="M58,124.7v8.7h2.3v-3.1h0.9c2.1,0,3.4-1,3.4-2.8c0-2-1.2-2.9-3.9-2.9H58z M62.4,127.5c0,0.9-0.7,1.2-1.4,1.2&#10;  h-0.6v-2.4h0.6C61.7,126.3,62.4,126.6,62.4,127.5z"/>
	<path class="st0" d="M67.7,130.3h0.9c2.2,0,3.4-1,3.4-2.8c0-2-1.2-2.9-3.9-2.9h-2.8v8.7h2.3V130.3z M67.7,126.3h0.6&#10;  c0.8,0,1.4,0.3,1.4,1.2c0,0.9-0.7,1.2-1.4,1.2h-0.6V126.3z"/>
	<path class="st0" d="M78,129.1L78,129.1c1.1-0.3,1.7-1,1.7-2.2c0-1.5-1.3-2.2-2.8-2.2h-4.1v8.7H75v-3.4h0.5c0.8,0,1.1,0.4,1.6,1.9&#10;  l0.5,1.6h2.4l-0.8-2.4C78.8,129.9,78.7,129.3,78,129.1z M75.7,128.3H75v-2h0.6c0.9,0,1.7,0.2,1.7,1&#10;  C77.4,128.2,76.4,128.3,75.7,128.3z"/>
	<path class="st0" d="M89.2,129c0-2.8-1.5-4.5-4.4-4.5s-4.4,1.7-4.4,4.5c0,2.8,1.5,4.5,4.4,4.5S89.2,131.8,89.2,129z M84.8,131.8&#10;  c-1.4,0-2-1.3-2-2.8c0-1.5,0.6-2.8,2-2.8c1.4,0,2,1.3,2,2.8C86.8,130.5,86.2,131.8,84.8,131.8z"/>
	<polygon class="st0" points="94.9,133.4 97.9,124.7 95.5,124.7 93.6,131.5 91.6,124.7 89.2,124.7 92.1,133.4"/>
	<polygon class="st0" points="104.9,131.7 101,131.7 101,129.7 104.6,129.7 104.6,128.1 101,128.1 101,126.3 104.8,126.3 &#10;  104.8,124.7 98.7,124.7 98.7,133.4 104.9,133.4"/>
	<path class="st0" d="M114.3,129c0-3.4-2.1-4.3-5.1-4.3H106v8.7h3.2C112.2,133.4,114.3,132.2,114.3,129z M109.3,131.6h-0.9v-5.3h0.9&#10;  c1.7,0,2.7,0.9,2.7,2.6S111,131.6,109.3,131.6z"/>
	<path class="st0" d="M109.3,24.1c0-1.2-0.9-2.1-2.1-2.1c-1.2,0-2.1,0.9-2.1,2.1c0,1.2,0.9,2.1,2.1,2.1&#10;  C108.3,26.2,109.3,25.3,109.3,24.1z M105.5,24.1c0-1,0.7-1.8,1.7-1.8c1,0,1.7,0.7,1.7,1.8c0,1-0.7,1.8-1.7,1.8&#10;  C106.2,25.9,105.5,25.1,105.5,24.1z"/>
	<path class="st0" d="M108.2,25.3l-0.7-1.1c0.4,0,0.7-0.3,0.7-0.7c0-0.5-0.3-0.7-0.8-0.7h-0.9v2.5h0.4v-1.1h0.3l0.7,1.1H108.2z&#10;   M106.8,23.9v-0.7h0.5c0.3,0,0.5,0.1,0.5,0.4c0,0.3-0.2,0.4-0.5,0.4H106.8z"/>
	<path class="st0" d="M65.1,55C59,57.1,53.5,68.3,53.5,68.3c6.8,3.9,5.5,8.7,5.5,8.7s4.6-2,9.5,4c0,0,10-7.2,11.2-13.5&#10;  c0.2,6.5,9.1,15.1,9.1,15.1c5.8-5.2,10-2.5,10-2.5s-0.6-5,6.7-7.8c0,0-3.8-11.8-9.5-14.8c6.2,1.8,17.2-4,17.2-4&#10;  c-3.2-7.1,0.7-10.3,0.7-10.3s-4.9-1-5.4-8.8c0,0-12.2,0-16.9,4.3c3.6-5.4,1.5-17.5,1.5-17.5c-7.8,0.8-9.6-3.8-9.6-3.8&#10;  s-2.5,4.4-10,2.4c0,0-3.9,11.7-1.1,17.5c-3.9-5.1-16.2-6.9-16.2-6.9c-1.6,7.6-6.6,7.9-6.6,7.9s3.3,3.7-0.8,10.3&#10;  C48.7,48.6,58.7,55.9,65.1,55z M77.7,66.9c-0.1,0.8-0.5,1.8-1.1,2.8c-0.6,1-1.3,2-2.2,3.1c-1.5,1.8-3.3,3.5-4.7,4.7&#10;  c-0.4,0.3-0.7,0.6-1,0.8c-0.3-0.3-0.6-0.6-0.9-0.9c-1.2-1-2.3-1.7-3.4-2.1c3.8-2.8,9.9-8.4,11.8-16.6c0.4,1.6,0.8,3.8,1.6,6.7&#10;  C77.7,65.8,77.7,66.3,77.7,66.9z M97.2,61.1c0.8,0.8,1.6,1.9,2.2,3c1.3,2,2.3,4.3,3,6c0.2,0.5,0.4,0.9,0.5,1.2&#10;  c-0.4,0.2-0.7,0.4-1.1,0.6c-1.3,0.8-2.3,1.7-3.1,2.6c-1.5-4.5-4.9-12-12.1-16.3c1.6,0.2,3.9,0.4,6.8,0.6c0.5,0,0.9,0.2,1.4,0.4&#10;  C95.6,59.5,96.4,60.2,97.2,61.1z M92.8,40.5c0.6-0.6,1.5-1.2,2.5-1.6c1-0.5,2.3-0.9,3.6-1.2c2.3-0.6,4.7-0.8,6.6-1&#10;  c0.5,0,0.9-0.1,1.3-0.1c0.1,0.4,0.2,0.8,0.3,1.2c0.4,1.5,0.9,2.7,1.5,3.7c-4.7,0.1-12.9,1.1-19.3,6.5c0.7-1.5,1.6-3.6,2.7-6.3&#10;  C92.1,41.2,92.4,40.8,92.8,40.5z M73.6,29.9c0.2-2.4,0.7-4.8,1.1-6.6c0.1-0.5,0.2-0.9,0.3-1.3c0.4,0.1,0.8,0.1,1.3,0.2&#10;  c1.5,0.1,2.8,0,4-0.3c-1.4,4.6-3,12.6,0.2,20.4c-1.2-1.1-2.9-2.6-5.2-4.5c-0.3-0.3-0.6-0.7-0.9-1.2c-0.4-0.7-0.7-1.8-0.8-2.9&#10;  C73.5,32.5,73.5,31.2,73.6,29.9z M73.8,39.2c5.3,4.5,7.5,6.7,7.5,6.7s2.5-1.8,8.5-5.5c0.3-0.2,0.5-0.3,0.7-0.5&#10;  c-0.2,0.3-0.3,0.6-0.5,0.9c-2.6,6.4-4,9.2-4,9.2s2.5,1.9,7.8,6.3c0.3,0.2,0.6,0.4,0.9,0.6c-0.3-0.1-0.7-0.2-1.1-0.2&#10;  c-7-0.5-10-0.9-10-0.9s-1,3-3.6,9.4c-0.1,0.3-0.2,0.6-0.3,0.9c0-0.3-0.1-0.7-0.1-1c-1.7-6.8-2.2-9.8-2.2-9.8s-3.1,0-10-0.6&#10;  c-0.4,0-0.7,0-1.1,0c0.4-0.1,0.7-0.3,1.1-0.5c5.9-3.6,8.7-5.1,8.7-5.1s-0.9-3-2.6-9.7c-0.1-0.3-0.2-0.7-0.3-1&#10;  C73.3,38.7,73.6,39,73.8,39.2z M51.9,46.6c0.6-1.4,0.8-2.7,0.9-3.9c3.9,2.8,11,6.8,19.4,6.1c-1.5,0.9-3.4,2-5.9,3.6&#10;  c-0.4,0.2-0.8,0.4-1.4,0.5c-0.8,0.1-1.9,0.1-3-0.2c-1.1-0.2-2.4-0.7-3.6-1.1c-2.2-0.9-4.4-2.1-5.9-3.1c-0.4-0.3-0.8-0.5-1.1-0.7&#10;  C51.6,47.4,51.8,47,51.9,46.6z"/>
</g>
</svg>