<svg xmlns:xlink="http://www.w3.org/1999/xlink" xmlns="http://www.w3.org/2000/svg" id="Layer_1" data-name="Layer 1" viewBox="0 0 113.38 38.8" width="206"  height="70" >
  <defs>
    <style>.cls-1,.cls-2{fill:#004f9f;}.cls-1{fill-rule:evenodd;}</style>
  </defs>
  <path class="cls-1" d="M8.66,9.38h6.13l3,12.59a115.77,115.77,0,0,0,3.7-12.59h5.4L30.18,22h0l3.39-12.6h5.72L33.54,29.73H27.93c-1.58-3.77-3.74-12-3.79-12.1l-3.51,12.1h-5.7L8.66,9.38"/>
  <rect class="cls-2" x="42.54" y="9.38" width="5.11" height="20.35"/>
  <path class="cls-2" d="M53.13,9.38h5.11v7.27a.21.21,0,0,0,.15.08l7-7.35h6.82l-8.16,8,8.87,12.33H66.55l-5.93-8.35c-.77.69-1.57,1.5-2.38,2.29v6.07H53.13V9.38"/>
  <path class="cls-1" d="M80.76,9.37H88l7.58,19.91v.45H89.42C89,28.09,88.35,26.86,88,25.19h-7.2c-.48,1.49-1,3-1.41,4.53h-6L80.76,9.37m3.56,5A64.3,64.3,0,0,0,82.16,21h4.21V20.4Z"/>
  <polyline class="cls-2" points="0 0 104.21 0 104.21 29.73 98.51 29.73 98.51 5.32 5.73 5.32 5.73 33.56 107.84 33.56 107.84 0.05 113.38 0.05 113.38 38.8 0 38.8 0 0"/>
</svg>